<?xml version="1.0" encoding="utf-8"?>
<svg xmlns="http://www.w3.org/2000/svg" xmlns:xlink="http://www.w3.org/1999/xlink" width="600" height="400" viewBox="0 0 2400 1600">
<defs>
  <clipPath id="clip5100">
    <rect x="0" y="0" width="2400" height="1600"/>
  </clipPath>
</defs>
<path clip-path="url(#clip5100)" d="
M0 1600 L2400 1600 L2400 0 L0 0  Z
  " fill="#ffffff" fill-rule="evenodd" fill-opacity="1"/>
<defs>
  <clipPath id="clip5101">
    <rect x="480" y="0" width="1681" height="1600"/>
  </clipPath>
</defs>
<path clip-path="url(#clip5100)" d="
M255.898 625.619 L2352.76 625.619 L2352.76 121.675 L255.898 121.675  Z
  " fill="#ffffff" fill-rule="evenodd" fill-opacity="1"/>
<defs>
  <clipPath id="clip5102">
    <rect x="255" y="121" width="2098" height="505"/>
  </clipPath>
</defs>
<polyline clip-path="url(#clip5102)" style="stroke:#000000; stroke-width:2; stroke-opacity:0.1; fill:none" points="
  315.243,625.619 315.243,121.675 
  "/>
<polyline clip-path="url(#clip5102)" style="stroke:#000000; stroke-width:2; stroke-opacity:0.1; fill:none" points="
  727.361,625.619 727.361,121.675 
  "/>
<polyline clip-path="url(#clip5102)" style="stroke:#000000; stroke-width:2; stroke-opacity:0.1; fill:none" points="
  1139.48,625.619 1139.48,121.675 
  "/>
<polyline clip-path="url(#clip5102)" style="stroke:#000000; stroke-width:2; stroke-opacity:0.1; fill:none" points="
  1551.6,625.619 1551.6,121.675 
  "/>
<polyline clip-path="url(#clip5102)" style="stroke:#000000; stroke-width:2; stroke-opacity:0.1; fill:none" points="
  1963.72,625.619 1963.72,121.675 
  "/>
<polyline clip-path="url(#clip5102)" style="stroke:#000000; stroke-width:2; stroke-opacity:0.1; fill:none" points="
  255.898,619.455 2352.76,619.455 
  "/>
<polyline clip-path="url(#clip5102)" style="stroke:#000000; stroke-width:2; stroke-opacity:0.1; fill:none" points="
  255.898,504.242 2352.76,504.242 
  "/>
<polyline clip-path="url(#clip5102)" style="stroke:#000000; stroke-width:2; stroke-opacity:0.1; fill:none" points="
  255.898,389.029 2352.76,389.029 
  "/>
<polyline clip-path="url(#clip5102)" style="stroke:#000000; stroke-width:2; stroke-opacity:0.1; fill:none" points="
  255.898,273.816 2352.76,273.816 
  "/>
<polyline clip-path="url(#clip5102)" style="stroke:#000000; stroke-width:2; stroke-opacity:0.1; fill:none" points="
  255.898,158.603 2352.76,158.603 
  "/>
<polyline clip-path="url(#clip5100)" style="stroke:#000000; stroke-width:4; stroke-opacity:1; fill:none" points="
  255.898,625.619 2352.76,625.619 
  "/>
<polyline clip-path="url(#clip5100)" style="stroke:#000000; stroke-width:4; stroke-opacity:1; fill:none" points="
  255.898,625.619 255.898,121.675 
  "/>
<polyline clip-path="url(#clip5100)" style="stroke:#000000; stroke-width:4; stroke-opacity:1; fill:none" points="
  315.243,625.619 315.243,618.059 
  "/>
<polyline clip-path="url(#clip5100)" style="stroke:#000000; stroke-width:4; stroke-opacity:1; fill:none" points="
  727.361,625.619 727.361,618.059 
  "/>
<polyline clip-path="url(#clip5100)" style="stroke:#000000; stroke-width:4; stroke-opacity:1; fill:none" points="
  1139.48,625.619 1139.48,618.059 
  "/>
<polyline clip-path="url(#clip5100)" style="stroke:#000000; stroke-width:4; stroke-opacity:1; fill:none" points="
  1551.6,625.619 1551.6,618.059 
  "/>
<polyline clip-path="url(#clip5100)" style="stroke:#000000; stroke-width:4; stroke-opacity:1; fill:none" points="
  1963.72,625.619 1963.72,618.059 
  "/>
<polyline clip-path="url(#clip5100)" style="stroke:#000000; stroke-width:4; stroke-opacity:1; fill:none" points="
  255.898,619.455 287.35,619.455 
  "/>
<polyline clip-path="url(#clip5100)" style="stroke:#000000; stroke-width:4; stroke-opacity:1; fill:none" points="
  255.898,504.242 287.35,504.242 
  "/>
<polyline clip-path="url(#clip5100)" style="stroke:#000000; stroke-width:4; stroke-opacity:1; fill:none" points="
  255.898,389.029 287.35,389.029 
  "/>
<polyline clip-path="url(#clip5100)" style="stroke:#000000; stroke-width:4; stroke-opacity:1; fill:none" points="
  255.898,273.816 287.35,273.816 
  "/>
<polyline clip-path="url(#clip5100)" style="stroke:#000000; stroke-width:4; stroke-opacity:1; fill:none" points="
  255.898,158.603 287.35,158.603 
  "/>
<g clip-path="url(#clip5100)">
<text style="fill:#000000; fill-opacity:1; font-family:Arial,Helvetica Neue,Helvetica,sans-serif; font-size:48px; text-anchor:middle;" transform="rotate(0, 315.243, 679.619)" x="315.243" y="679.619">0</text>
</g>
<g clip-path="url(#clip5100)">
<text style="fill:#000000; fill-opacity:1; font-family:Arial,Helvetica Neue,Helvetica,sans-serif; font-size:48px; text-anchor:middle;" transform="rotate(0, 727.361, 679.619)" x="727.361" y="679.619">25</text>
</g>
<g clip-path="url(#clip5100)">
<text style="fill:#000000; fill-opacity:1; font-family:Arial,Helvetica Neue,Helvetica,sans-serif; font-size:48px; text-anchor:middle;" transform="rotate(0, 1139.48, 679.619)" x="1139.48" y="679.619">50</text>
</g>
<g clip-path="url(#clip5100)">
<text style="fill:#000000; fill-opacity:1; font-family:Arial,Helvetica Neue,Helvetica,sans-serif; font-size:48px; text-anchor:middle;" transform="rotate(0, 1551.6, 679.619)" x="1551.6" y="679.619">75</text>
</g>
<g clip-path="url(#clip5100)">
<text style="fill:#000000; fill-opacity:1; font-family:Arial,Helvetica Neue,Helvetica,sans-serif; font-size:48px; text-anchor:middle;" transform="rotate(0, 1963.72, 679.619)" x="1963.72" y="679.619">100</text>
</g>
<g clip-path="url(#clip5100)">
<text style="fill:#000000; fill-opacity:1; font-family:Arial,Helvetica Neue,Helvetica,sans-serif; font-size:48px; text-anchor:end;" transform="rotate(0, 231.898, 636.955)" x="231.898" y="636.955">0</text>
</g>
<g clip-path="url(#clip5100)">
<text style="fill:#000000; fill-opacity:1; font-family:Arial,Helvetica Neue,Helvetica,sans-serif; font-size:48px; text-anchor:end;" transform="rotate(0, 231.898, 521.742)" x="231.898" y="521.742">1000</text>
</g>
<g clip-path="url(#clip5100)">
<text style="fill:#000000; fill-opacity:1; font-family:Arial,Helvetica Neue,Helvetica,sans-serif; font-size:48px; text-anchor:end;" transform="rotate(0, 231.898, 406.529)" x="231.898" y="406.529">2000</text>
</g>
<g clip-path="url(#clip5100)">
<text style="fill:#000000; fill-opacity:1; font-family:Arial,Helvetica Neue,Helvetica,sans-serif; font-size:48px; text-anchor:end;" transform="rotate(0, 231.898, 291.316)" x="231.898" y="291.316">3000</text>
</g>
<g clip-path="url(#clip5100)">
<text style="fill:#000000; fill-opacity:1; font-family:Arial,Helvetica Neue,Helvetica,sans-serif; font-size:48px; text-anchor:end;" transform="rotate(0, 231.898, 176.103)" x="231.898" y="176.103">4000</text>
</g>
<g clip-path="url(#clip5100)">
<text style="fill:#000000; fill-opacity:1; font-family:Arial,Helvetica Neue,Helvetica,sans-serif; font-size:84px; text-anchor:middle;" transform="rotate(0, 1304.33, 73.2)" x="1304.33" y="73.2">Population Simulation</text>
</g>
<g clip-path="url(#clip5100)">
<text style="fill:#000000; fill-opacity:1; font-family:Arial,Helvetica Neue,Helvetica,sans-serif; font-size:66px; text-anchor:middle;" transform="rotate(0, 1304.33, 759.48)" x="1304.33" y="759.48">time</text>
</g>
<g clip-path="url(#clip5100)">
<text style="fill:#000000; fill-opacity:1; font-family:Arial,Helvetica Neue,Helvetica,sans-serif; font-size:66px; text-anchor:middle;" transform="rotate(-90, 89.2861, 373.647)" x="89.2861" y="373.647">cp</text>
</g>
<polyline clip-path="url(#clip5102)" style="stroke:#009af9; stroke-width:6; stroke-opacity:1; fill:none" points="
  315.243,415.105 331.727,422.734 348.212,430.078 364.697,437.148 381.182,443.954 397.666,450.506 414.151,456.813 430.636,462.885 447.121,468.73 463.605,474.357 
  480.09,479.774 496.575,484.989 513.059,490.009 529.544,494.842 546.029,499.494 562.514,503.972 578.998,508.283 595.483,512.434 611.968,516.429 628.453,520.275 
  644.937,523.978 661.422,527.543 677.907,530.974 694.392,534.277 710.876,333.107 727.361,343.797 743.846,354.088 760.33,363.995 776.815,373.532 793.3,382.713 
  809.785,391.552 826.269,400.06 842.754,408.251 859.239,416.135 875.724,423.726 892.208,431.033 908.693,438.067 925.178,444.839 941.663,451.358 958.147,457.633 
  974.632,463.675 991.117,469.49 1007.6,475.089 1024.09,480.479 1040.57,485.667 1057.06,490.662 1073.54,495.47 1090.03,500.099 1106.51,300.205 1122.99,312.123 
  1139.48,323.597 1155.96,334.642 1172.45,345.275 1188.93,355.511 1205.42,365.365 1221.9,374.85 1238.39,383.982 1254.87,392.773 1271.36,401.236 1287.84,409.383 
  1304.33,417.225 1320.81,424.775 1337.3,432.043 1353.78,439.04 1370.27,445.775 1386.75,452.259 1403.24,458.501 1419.72,464.51 1436.2,470.294 1452.69,475.863 
  1469.17,481.224 1485.66,486.384 1502.14,287.002 1518.63,299.414 1535.11,311.362 1551.6,322.864 1568.08,333.936 1584.57,344.595 1601.05,354.857 1617.54,364.735 
  1634.02,374.244 1650.51,383.399 1666.99,392.211 1683.48,400.695 1699.96,408.862 1716.45,416.724 1732.93,424.293 1749.41,431.579 1765.9,438.592 1782.38,445.345 
  1798.87,451.845 1815.35,458.102 1831.84,464.126 1848.32,469.925 1864.81,475.507 1881.29,480.881 1897.78,281.704 1914.26,294.314 1930.75,306.452 1947.23,318.137 
  1963.72,329.386 1980.2,340.216 1996.69,350.64 2013.17,360.676 2029.66,370.337 2046.14,379.637 2062.62,388.59 2079.11,397.209 2095.59,405.506 2112.08,413.493 
  2128.56,421.183 2145.05,428.585 2161.53,435.71 2178.02,442.57 2194.5,449.174 2210.99,455.531 2227.47,461.651 2243.96,467.542 2260.44,473.213 2276.93,478.673 
  2293.41,483.929 
  "/>
<polyline clip-path="url(#clip5102)" style="stroke:#e26f46; stroke-width:6; stroke-opacity:1; fill:none" points="
  315.243,390.697 331.727,397.238 348.212,403.591 364.697,409.763 381.182,415.758 397.666,421.582 414.151,427.239 430.636,432.735 447.121,438.073 463.605,443.259 
  480.09,448.297 496.575,453.19 513.059,457.944 529.544,462.562 546.029,467.047 562.514,471.405 578.998,475.638 595.483,479.75 611.968,483.744 628.453,487.624 
  644.937,491.393 661.422,495.055 677.907,498.611 694.392,502.066 710.876,276.665 727.361,286.466 743.846,295.986 760.33,305.234 776.815,314.218 793.3,322.945 
  809.785,331.423 826.269,339.658 842.754,347.657 859.239,355.428 875.724,362.977 892.208,370.31 908.693,377.433 925.178,384.353 941.663,391.075 958.147,397.604 
  974.632,403.947 991.117,410.109 1007.6,416.094 1024.09,421.908 1040.57,427.556 1057.06,433.043 1073.54,438.372 1090.03,443.55 1106.51,219.822 1122.99,231.247 
  1139.48,242.347 1155.96,253.128 1172.45,263.602 1188.93,273.776 1205.42,283.659 1221.9,293.26 1238.39,302.586 1254.87,311.646 1271.36,320.446 1287.84,328.995 
  1304.33,337.3 1320.81,345.367 1337.3,353.203 1353.78,360.816 1370.27,368.21 1386.75,375.394 1403.24,382.371 1419.72,389.15 1436.2,395.734 1452.69,402.131 
  1469.17,408.344 1485.66,414.38 1502.14,191.486 1518.63,203.722 1535.11,215.608 1551.6,227.154 1568.08,238.371 1584.57,249.266 1601.05,259.85 1617.54,270.132 
  1634.02,280.119 1650.51,289.821 1666.99,299.245 1683.48,308.4 1699.96,317.294 1716.45,325.933 1732.93,334.325 1749.41,342.477 1765.9,350.396 1782.38,358.089 
  1798.87,365.561 1815.35,372.82 1831.84,379.872 1848.32,386.722 1864.81,393.376 1881.29,399.839 1897.78,177.361 1914.26,190.001 1930.75,202.279 1947.23,214.207 
  1963.72,225.793 1980.2,237.048 1996.69,247.982 2013.17,258.602 2029.66,268.919 2046.14,278.941 2062.62,288.677 2079.11,298.134 2095.59,307.321 2112.08,316.245 
  2128.56,324.914 2145.05,333.335 2161.53,341.516 2178.02,349.462 2194.5,357.182 2210.99,364.68 2227.47,371.964 2243.96,379.04 2260.44,385.914 2276.93,392.591 
  2293.41,399.077 
  "/>
<polyline clip-path="url(#clip5102)" style="stroke:#3da44d; stroke-width:6; stroke-opacity:1; fill:none" points="
  315.243,417.312 331.727,438.611 348.212,457.666 364.697,474.713 381.182,489.964 397.666,503.608 414.151,515.814 430.636,526.734 447.121,536.504 463.605,545.244 
  480.09,553.063 496.575,560.059 513.059,566.317 529.544,571.916 546.029,576.925 562.514,581.406 578.998,585.415 595.483,589.002 611.968,592.21 628.453,595.081 
  644.937,597.649 661.422,599.947 677.907,602.002 694.392,603.841 710.876,403.344 727.361,426.114 743.846,446.486 760.33,464.711 776.815,481.016 793.3,495.602 
  809.785,508.652 826.269,520.327 842.754,530.772 859.239,540.116 875.724,548.476 892.208,555.954 908.693,562.645 925.178,568.631 941.663,573.986 958.147,578.777 
  974.632,583.063 991.117,586.897 1007.6,590.328 1024.09,593.397 1040.57,596.142 1057.06,598.599 1073.54,600.796 1090.03,602.762 1106.51,402.378 1122.99,425.251 
  1139.48,445.713 1155.96,464.02 1172.45,480.397 1188.93,495.049 1205.42,508.157 1221.9,519.884 1238.39,530.376 1254.87,539.762 1271.36,548.158 1287.84,555.671 
  1304.33,562.391 1320.81,568.404 1337.3,573.783 1353.78,578.595 1370.27,582.9 1386.75,586.752 1403.24,590.198 1419.72,593.28 1436.2,596.038 1452.69,598.506 
  1469.17,600.713 1485.66,602.688 1502.14,402.312 1518.63,425.191 1535.11,445.66 1551.6,463.972 1568.08,480.355 1584.57,495.011 1601.05,508.123 1617.54,519.854 
  1634.02,530.348 1650.51,539.737 1666.99,548.137 1683.48,555.651 1699.96,562.374 1716.45,568.388 1732.93,573.769 1749.41,578.583 1765.9,582.889 1782.38,586.742 
  1798.87,590.189 1815.35,593.272 1831.84,596.031 1848.32,598.499 1864.81,600.707 1881.29,602.683 1897.78,402.307 1914.26,425.187 1930.75,445.656 1947.23,463.969 
  1963.72,480.352 1980.2,495.008 1996.69,508.121 2013.17,519.852 2029.66,530.346 2046.14,539.735 2062.62,548.135 2079.11,555.65 2095.59,562.373 2112.08,568.387 
  2128.56,573.768 2145.05,578.582 2161.53,582.888 2178.02,586.741 2194.5,590.188 2210.99,593.272 2227.47,596.031 2243.96,598.499 2260.44,600.707 2276.93,602.682 
  2293.41,604.449 
  "/>
<polyline clip-path="url(#clip5102)" style="stroke:#c271d2; stroke-width:6; stroke-opacity:1; fill:none" points="
  315.243,396.552 331.727,417.114 348.212,435.779 364.697,452.722 381.182,468.103 397.666,482.064 414.151,494.738 430.636,506.243 447.121,516.686 463.605,526.166 
  480.09,534.771 496.575,542.583 513.059,549.674 529.544,556.111 546.029,561.954 562.514,567.258 578.998,572.073 595.483,576.444 611.968,580.412 628.453,584.013 
  644.937,587.283 661.422,590.25 677.907,592.944 694.392,595.39 710.876,374.707 727.361,397.284 743.846,417.778 760.33,436.382 776.815,453.27 793.3,468.6 
  809.785,482.515 826.269,495.147 842.754,506.614 859.239,517.023 875.724,526.472 892.208,535.049 908.693,542.835 925.178,549.903 941.663,556.319 958.147,562.143 
  974.632,567.43 991.117,572.229 1007.6,576.585 1024.09,580.54 1040.57,584.13 1057.06,587.388 1073.54,590.346 1090.03,593.031 1106.51,372.566 1122.99,395.34 
  1139.48,416.014 1155.96,434.781 1172.45,451.816 1188.93,467.28 1205.42,481.317 1221.9,494.06 1238.39,505.627 1254.87,516.127 1271.36,525.659 1287.84,534.311 
  1304.33,542.165 1320.81,549.295 1337.3,555.767 1353.78,561.642 1370.27,566.975 1386.75,571.816 1403.24,576.21 1419.72,580.199 1436.2,583.821 1452.69,587.108 
  1469.17,590.092 1485.66,592.8 1502.14,372.356 1518.63,395.15 1535.11,415.841 1551.6,434.624 1568.08,451.674 1584.57,467.151 1601.05,481.2 1617.54,493.953 
  1634.02,505.53 1650.51,516.039 1666.99,525.579 1683.48,534.239 1699.96,542.1 1716.45,549.235 1732.93,555.713 1749.41,561.593 1765.9,566.93 1782.38,571.775 
  1798.87,576.174 1815.35,580.166 1831.84,583.79 1848.32,587.08 1864.81,590.067 1881.29,592.778 1897.78,372.336 1914.26,395.131 1930.75,415.824 1947.23,434.608 
  1963.72,451.66 1980.2,467.138 1996.69,481.189 2013.17,493.943 2029.66,505.521 2046.14,516.031 2062.62,525.571 2079.11,534.232 2095.59,542.093 2112.08,549.229 
  2128.56,555.707 2145.05,561.588 2161.53,566.926 2178.02,571.771 2194.5,576.17 2210.99,580.163 2227.47,583.787 2243.96,587.078 2260.44,590.064 2276.93,592.775 
  2293.41,595.236 
  "/>
<polyline clip-path="url(#clip5102)" style="stroke:#ac8d18; stroke-width:6; stroke-opacity:1; fill:none" points="
  315.243,425.203 331.727,449.58 348.212,470.898 364.697,489.541 381.182,505.845 397.666,520.102 414.151,532.57 430.636,543.474 447.121,553.009 463.605,561.347 
  480.09,568.639 496.575,575.016 513.059,580.593 529.544,585.47 546.029,589.735 562.514,593.465 578.998,596.726 595.483,599.578 611.968,602.073 628.453,604.254 
  644.937,606.162 661.422,607.83 677.907,609.289 694.392,610.565 710.876,417.428 727.361,442.781 743.846,464.953 760.33,484.342 776.815,501.297 793.3,516.125 
  809.785,529.093 826.269,540.432 842.754,550.349 859.239,559.022 875.724,566.606 892.208,573.238 908.693,579.038 925.178,584.11 941.663,588.545 958.147,592.424 
  974.632,595.816 991.117,598.783 1007.6,601.377 1024.09,603.646 1040.57,605.63 1057.06,607.365 1073.54,608.882 1090.03,610.209 1106.51,417.117 1122.99,442.509 
  1139.48,464.715 1155.96,484.134 1172.45,501.115 1188.93,515.966 1205.42,528.953 1221.9,540.311 1238.39,550.243 1254.87,558.929 1271.36,566.524 1287.84,573.167 
  1304.33,578.975 1320.81,584.055 1337.3,588.498 1353.78,592.383 1370.27,595.78 1386.75,598.751 1403.24,601.349 1419.72,603.621 1436.2,605.608 1452.69,607.346 
  1469.17,608.866 1485.66,610.194 1502.14,417.105 1518.63,442.498 1535.11,464.705 1551.6,484.125 1568.08,501.108 1584.57,515.96 1601.05,528.948 1617.54,540.306 
  1634.02,550.239 1650.51,558.925 1666.99,566.521 1683.48,573.164 1699.96,578.973 1716.45,584.053 1732.93,588.496 1749.41,592.381 1765.9,595.779 1782.38,598.75 
  1798.87,601.348 1815.35,603.62 1831.84,605.608 1848.32,607.345 1864.81,608.865 1881.29,610.194 1897.78,417.104 1914.26,442.498 1930.75,464.705 1947.23,484.125 
  1963.72,501.108 1980.2,515.96 1996.69,528.948 2013.17,540.306 2029.66,550.238 2046.14,558.925 2062.62,566.521 2079.11,573.164 2095.59,578.973 2112.08,584.053 
  2128.56,588.496 2145.05,592.381 2161.53,595.779 2178.02,598.75 2194.5,601.348 2210.99,603.62 2227.47,605.608 2243.96,607.345 2260.44,608.865 2276.93,610.194 
  2293.41,611.356 
  "/>
<polyline clip-path="url(#clip5102)" style="stroke:#00a9ad; stroke-width:6; stroke-opacity:1; fill:none" points="
  315.243,410.683 331.727,430.076 348.212,447.668 364.697,463.626 381.182,478.101 397.666,491.232 414.151,503.143 430.636,513.948 447.121,523.748 463.605,532.639 
  480.09,540.703 496.575,548.019 513.059,554.655 529.544,560.674 546.029,566.135 562.514,571.088 578.998,575.581 595.483,579.656 611.968,583.353 628.453,586.707 
  644.937,589.749 661.422,592.508 677.907,595.011 694.392,597.282 710.876,390.57 727.361,411.831 743.846,431.118 760.33,448.613 776.815,464.483 793.3,478.879 
  809.785,491.938 826.269,503.783 842.754,514.528 859.239,524.275 875.724,533.117 892.208,541.137 908.693,548.412 925.178,555.011 941.663,560.998 958.147,566.428 
  974.632,571.354 991.117,575.822 1007.6,579.875 1024.09,583.552 1040.57,586.887 1057.06,589.912 1073.54,592.657 1090.03,595.146 1106.51,388.632 1122.99,410.074 
  1139.48,429.524 1155.96,447.167 1172.45,463.171 1188.93,477.689 1205.42,490.858 1221.9,502.804 1238.39,513.64 1254.87,523.469 1271.36,532.386 1287.84,540.474 
  1304.33,547.811 1320.81,554.466 1337.3,560.503 1353.78,565.979 1370.27,570.947 1386.75,575.453 1403.24,579.54 1419.72,583.248 1436.2,586.611 1452.69,589.662 
  1469.17,592.43 1485.66,594.94 1502.14,388.445 1518.63,409.904 1535.11,429.37 1551.6,447.028 1568.08,463.045 1584.57,477.574 1601.05,490.754 1617.54,502.709 
  1634.02,513.554 1650.51,523.392 1666.99,532.315 1683.48,540.41 1699.96,547.753 1716.45,554.413 1732.93,560.455 1749.41,565.936 1765.9,570.907 1782.38,575.417 
  1798.87,579.508 1815.35,583.219 1831.84,586.585 1848.32,589.638 1864.81,592.408 1881.29,594.92 1897.78,388.427 1914.26,409.888 1930.75,429.355 1947.23,447.014 
  1963.72,463.033 1980.2,477.563 1996.69,490.744 2013.17,502.7 2029.66,513.546 2046.14,523.384 2062.62,532.309 2079.11,540.404 2095.59,547.747 2112.08,554.408 
  2128.56,560.451 2145.05,565.932 2161.53,570.904 2178.02,575.414 2194.5,579.505 2210.99,583.216 2227.47,586.582 2243.96,589.636 2260.44,592.406 2276.93,594.918 
  2293.41,597.198 
  "/>
<polyline clip-path="url(#clip5102)" style="stroke:#ed5d92; stroke-width:6; stroke-opacity:1; fill:none" points="
  315.243,533.938 331.727,534.614 348.212,535.285 364.697,535.95 381.182,536.611 397.666,537.266 414.151,537.915 430.636,538.56 447.121,539.2 463.605,539.834 
  480.09,540.464 496.575,541.088 513.059,541.708 529.544,542.323 546.029,542.933 562.514,543.538 578.998,544.138 595.483,544.733 611.968,545.324 628.453,545.91 
  644.937,546.492 661.422,547.069 677.907,547.641 694.392,548.209 710.876,463.255 727.361,464.49 743.846,465.715 760.33,466.931 776.815,468.137 793.3,469.333 
  809.785,470.52 826.269,471.698 842.754,472.866 859.239,474.025 875.724,475.175 892.208,476.316 908.693,477.447 925.178,478.57 941.663,479.684 958.147,480.789 
  974.632,481.886 991.117,482.973 1007.6,484.052 1024.09,485.123 1040.57,486.185 1057.06,487.239 1073.54,488.284 1090.03,489.321 1106.51,404.833 1122.99,406.53 
  1139.48,408.214 1155.96,409.884 1172.45,411.541 1188.93,413.185 1205.42,414.816 1221.9,416.434 1238.39,418.039 1254.87,419.631 1271.36,421.211 1287.84,422.779 
  1304.33,424.334 1320.81,425.876 1337.3,427.407 1353.78,428.925 1370.27,430.432 1386.75,431.926 1403.24,433.409 1419.72,434.88 1436.2,436.339 1452.69,437.787 
  1469.17,439.223 1485.66,440.648 1502.14,356.545 1518.63,358.624 1535.11,360.686 1551.6,362.732 1568.08,364.762 1584.57,366.776 1601.05,368.774 1617.54,370.756 
  1634.02,372.722 1650.51,374.673 1666.99,376.608 1683.48,378.528 1699.96,380.433 1716.45,382.323 1732.93,384.198 1749.41,386.058 1765.9,387.903 1782.38,389.734 
  1798.87,391.55 1815.35,393.352 1831.84,395.14 1848.32,396.913 1864.81,398.673 1881.29,400.419 1897.78,316.634 1914.26,319.028 1930.75,321.403 1947.23,323.76 
  1963.72,326.098 1980.2,328.417 1996.69,330.718 2013.17,333.001 2029.66,335.266 2046.14,337.513 2062.62,339.742 2079.11,341.954 2095.59,344.148 2112.08,346.324 
  2128.56,348.484 2145.05,350.626 2161.53,352.752 2178.02,354.86 2194.5,356.953 2210.99,359.028 2227.47,361.087 2243.96,363.13 2260.44,365.156 2276.93,367.167 
  2293.41,369.162 
  "/>
<polyline clip-path="url(#clip5102)" style="stroke:#c68125; stroke-width:6; stroke-opacity:1; fill:none" points="
  315.243,373.238 331.727,380.089 348.212,386.749 364.697,393.224 381.182,399.519 397.666,405.638 414.151,411.588 430.636,417.372 447.121,422.995 463.605,428.461 
  480.09,433.775 496.575,438.942 513.059,443.964 529.544,448.847 546.029,453.594 562.514,458.209 578.998,462.696 595.483,467.058 611.968,471.298 628.453,475.421 
  644.937,479.428 661.422,483.324 677.907,487.112 694.392,490.795 710.876,248.158 727.361,258.489 743.846,268.533 760.33,278.297 776.815,287.789 793.3,297.018 
  809.785,305.99 826.269,314.712 842.754,323.191 859.239,331.434 875.724,339.449 892.208,347.24 908.693,354.814 925.178,362.177 941.663,369.336 958.147,376.295 
  974.632,383.061 991.117,389.639 1007.6,396.033 1024.09,402.25 1040.57,408.294 1057.06,414.169 1073.54,419.881 1090.03,425.434 1106.51,184.616 1122.99,196.715 
  1139.48,208.478 1155.96,219.913 1172.45,231.03 1188.93,241.838 1205.42,252.345 1221.9,262.56 1238.39,272.49 1254.87,282.144 1271.36,291.53 1287.84,300.654 
  1304.33,309.525 1320.81,318.148 1337.3,326.532 1353.78,334.682 1370.27,342.606 1386.75,350.309 1403.24,357.798 1419.72,365.079 1436.2,372.157 1452.69,379.038 
  1469.17,385.727 1485.66,392.231 1502.14,152.336 1518.63,165.333 1535.11,177.969 1551.6,190.253 1568.08,202.196 1584.57,213.806 1601.05,225.093 1617.54,236.066 
  1634.02,246.733 1650.51,257.104 1666.99,267.187 1683.48,276.988 1699.96,286.517 1716.45,295.781 1732.93,304.787 1749.41,313.543 1765.9,322.055 1782.38,330.33 
  1798.87,338.374 1815.35,346.195 1831.84,353.799 1848.32,361.191 1864.81,368.377 1881.29,375.363 1897.78,135.938 1914.26,149.391 1930.75,162.471 1947.23,175.186 
  1963.72,187.548 1980.2,199.565 1996.69,211.249 2013.17,222.607 2029.66,233.649 2046.14,244.384 2062.62,254.82 2079.11,264.966 2095.59,274.829 2112.08,284.418 
  2128.56,293.741 2145.05,302.804 2161.53,311.614 2178.02,320.18 2194.5,328.507 2210.99,336.603 2227.47,344.473 2243.96,352.124 2260.44,359.562 2276.93,366.794 
  2293.41,373.824 
  "/>
<polyline clip-path="url(#clip5102)" style="stroke:#00a98d; stroke-width:6; stroke-opacity:1; fill:none" points="
  315.243,495.945 331.727,499.71 348.212,503.359 364.697,506.898 381.182,510.329 397.666,513.655 414.151,516.88 430.636,520.006 447.121,523.037 463.605,525.976 
  480.09,528.825 496.575,531.588 513.059,534.266 529.544,536.863 546.029,539.38 562.514,541.821 578.998,544.187 595.483,546.481 611.968,548.705 628.453,550.862 
  644.937,552.953 661.422,554.98 677.907,556.945 694.392,558.85 710.876,437.187 727.361,442.743 743.846,448.129 760.33,453.351 776.815,458.414 793.3,463.323 
  809.785,468.082 826.269,472.695 842.754,477.169 859.239,481.506 875.724,485.71 892.208,489.787 908.693,493.739 925.178,497.571 941.663,501.286 958.147,504.888 
  974.632,508.38 991.117,511.765 1007.6,515.048 1024.09,518.23 1040.57,521.315 1057.06,524.307 1073.54,527.207 1090.03,530.019 1106.51,409.235 1122.99,415.642 
  1139.48,421.855 1155.96,427.877 1172.45,433.717 1188.93,439.378 1205.42,444.867 1221.9,450.188 1238.39,455.348 1254.87,460.35 1271.36,465.199 1287.84,469.901 
  1304.33,474.459 1320.81,478.879 1337.3,483.164 1353.78,487.318 1370.27,491.345 1386.75,495.25 1403.24,499.036 1419.72,502.706 1436.2,506.265 1452.69,509.715 
  1469.17,513.06 1485.66,516.303 1502.14,395.937 1518.63,402.75 1535.11,409.355 1551.6,415.759 1568.08,421.967 1584.57,427.987 1601.05,433.823 1617.54,439.481 
  1634.02,444.967 1650.51,450.285 1666.99,455.441 1683.48,460.44 1699.96,465.287 1716.45,469.986 1732.93,474.542 1749.41,478.959 1765.9,483.241 1782.38,487.393 
  1798.87,491.418 1815.35,495.321 1831.84,499.105 1848.32,502.773 1864.81,506.329 1881.29,509.778 1897.78,389.611 1914.26,396.616 1930.75,403.408 1947.23,409.994 
  1963.72,416.378 1980.2,422.568 1996.69,428.569 2013.17,434.387 2029.66,440.028 2046.14,445.497 2062.62,450.799 2079.11,455.94 2095.59,460.924 2112.08,465.756 
  2128.56,470.441 2145.05,474.983 2161.53,479.386 2178.02,483.655 2194.5,487.795 2210.99,491.808 2227.47,495.698 2243.96,499.47 2260.44,503.128 2276.93,506.673 
  2293.41,510.111 
  "/>
<polyline clip-path="url(#clip5102)" style="stroke:#8e971d; stroke-width:6; stroke-opacity:1; fill:none" points="
  315.243,503.715 331.727,508.104 348.212,512.327 364.697,516.389 381.182,520.298 397.666,524.058 414.151,527.676 430.636,531.156 447.121,534.504 463.605,537.726 
  480.09,540.825 496.575,543.807 513.059,546.676 529.544,549.436 546.029,552.091 562.514,554.645 578.998,557.103 595.483,559.468 611.968,561.743 628.453,563.931 
  644.937,566.037 661.422,568.062 677.907,570.011 694.392,571.886 710.876,457.95 727.361,464.075 743.846,469.967 760.33,475.636 776.815,481.09 793.3,486.337 
  809.785,491.385 826.269,496.242 842.754,500.914 859.239,505.41 875.724,509.734 892.208,513.895 908.693,517.898 925.178,521.749 941.663,525.455 958.147,529.019 
  974.632,532.449 991.117,535.748 1007.6,538.922 1024.09,541.976 1040.57,544.915 1057.06,547.741 1073.54,550.461 1090.03,553.077 1106.51,439.855 1122.99,446.665 
  1139.48,453.218 1155.96,459.522 1172.45,465.587 1188.93,471.422 1205.42,477.036 1221.9,482.436 1238.39,487.632 1254.87,492.631 1271.36,497.441 1287.84,502.068 
  1304.33,506.519 1320.81,510.802 1337.3,514.922 1353.78,518.886 1370.27,522.7 1386.75,526.369 1403.24,529.899 1419.72,533.295 1436.2,536.563 1452.69,539.706 
  1469.17,542.73 1485.66,545.64 1502.14,432.699 1518.63,439.781 1535.11,446.595 1551.6,453.15 1568.08,459.457 1584.57,465.524 1601.05,471.362 1617.54,476.978 
  1634.02,482.381 1650.51,487.579 1666.99,492.58 1683.48,497.391 1699.96,502.02 1716.45,506.473 1732.93,510.758 1749.41,514.88 1765.9,518.845 1782.38,522.661 
  1798.87,526.331 1815.35,529.863 1831.84,533.26 1848.32,536.529 1864.81,539.674 1881.29,542.699 1897.78,429.87 1914.26,437.059 1930.75,443.976 1947.23,450.631 
  1963.72,457.033 1980.2,463.192 1996.69,469.118 2013.17,474.819 2029.66,480.304 2046.14,485.581 2062.62,490.658 2079.11,495.542 2095.59,500.241 2112.08,504.762 
  2128.56,509.111 2145.05,513.295 2161.53,517.321 2178.02,521.194 2194.5,524.921 2210.99,528.506 2227.47,531.954 2243.96,535.273 2260.44,538.465 2276.93,541.536 
  2293.41,544.491 
  "/>
<path clip-path="url(#clip5100)" d="
M255.898 1425.62 L2352.76 1425.62 L2352.76 921.675 L255.898 921.675  Z
  " fill="#ffffff" fill-rule="evenodd" fill-opacity="1"/>
<defs>
  <clipPath id="clip5103">
    <rect x="255" y="921" width="2098" height="505"/>
  </clipPath>
</defs>
<polyline clip-path="url(#clip5103)" style="stroke:#000000; stroke-width:2; stroke-opacity:0.1; fill:none" points="
  315.243,1425.62 315.243,921.675 
  "/>
<polyline clip-path="url(#clip5103)" style="stroke:#000000; stroke-width:2; stroke-opacity:0.1; fill:none" points="
  727.361,1425.62 727.361,921.675 
  "/>
<polyline clip-path="url(#clip5103)" style="stroke:#000000; stroke-width:2; stroke-opacity:0.1; fill:none" points="
  1139.48,1425.62 1139.48,921.675 
  "/>
<polyline clip-path="url(#clip5103)" style="stroke:#000000; stroke-width:2; stroke-opacity:0.1; fill:none" points="
  1551.6,1425.62 1551.6,921.675 
  "/>
<polyline clip-path="url(#clip5103)" style="stroke:#000000; stroke-width:2; stroke-opacity:0.1; fill:none" points="
  1963.72,1425.62 1963.72,921.675 
  "/>
<polyline clip-path="url(#clip5103)" style="stroke:#000000; stroke-width:2; stroke-opacity:0.1; fill:none" points="
  255.898,1416.54 2352.76,1416.54 
  "/>
<polyline clip-path="url(#clip5103)" style="stroke:#000000; stroke-width:2; stroke-opacity:0.1; fill:none" points="
  255.898,1320.72 2352.76,1320.72 
  "/>
<polyline clip-path="url(#clip5103)" style="stroke:#000000; stroke-width:2; stroke-opacity:0.1; fill:none" points="
  255.898,1224.9 2352.76,1224.9 
  "/>
<polyline clip-path="url(#clip5103)" style="stroke:#000000; stroke-width:2; stroke-opacity:0.1; fill:none" points="
  255.898,1129.07 2352.76,1129.07 
  "/>
<polyline clip-path="url(#clip5103)" style="stroke:#000000; stroke-width:2; stroke-opacity:0.1; fill:none" points="
  255.898,1033.25 2352.76,1033.25 
  "/>
<polyline clip-path="url(#clip5103)" style="stroke:#000000; stroke-width:2; stroke-opacity:0.1; fill:none" points="
  255.898,937.424 2352.76,937.424 
  "/>
<polyline clip-path="url(#clip5100)" style="stroke:#000000; stroke-width:4; stroke-opacity:1; fill:none" points="
  255.898,1425.62 2352.76,1425.62 
  "/>
<polyline clip-path="url(#clip5100)" style="stroke:#000000; stroke-width:4; stroke-opacity:1; fill:none" points="
  255.898,1425.62 255.898,921.675 
  "/>
<polyline clip-path="url(#clip5100)" style="stroke:#000000; stroke-width:4; stroke-opacity:1; fill:none" points="
  315.243,1425.62 315.243,1418.06 
  "/>
<polyline clip-path="url(#clip5100)" style="stroke:#000000; stroke-width:4; stroke-opacity:1; fill:none" points="
  727.361,1425.62 727.361,1418.06 
  "/>
<polyline clip-path="url(#clip5100)" style="stroke:#000000; stroke-width:4; stroke-opacity:1; fill:none" points="
  1139.48,1425.62 1139.48,1418.06 
  "/>
<polyline clip-path="url(#clip5100)" style="stroke:#000000; stroke-width:4; stroke-opacity:1; fill:none" points="
  1551.6,1425.62 1551.6,1418.06 
  "/>
<polyline clip-path="url(#clip5100)" style="stroke:#000000; stroke-width:4; stroke-opacity:1; fill:none" points="
  1963.72,1425.62 1963.72,1418.06 
  "/>
<polyline clip-path="url(#clip5100)" style="stroke:#000000; stroke-width:4; stroke-opacity:1; fill:none" points="
  255.898,1416.54 287.35,1416.54 
  "/>
<polyline clip-path="url(#clip5100)" style="stroke:#000000; stroke-width:4; stroke-opacity:1; fill:none" points="
  255.898,1320.72 287.35,1320.72 
  "/>
<polyline clip-path="url(#clip5100)" style="stroke:#000000; stroke-width:4; stroke-opacity:1; fill:none" points="
  255.898,1224.9 287.35,1224.9 
  "/>
<polyline clip-path="url(#clip5100)" style="stroke:#000000; stroke-width:4; stroke-opacity:1; fill:none" points="
  255.898,1129.07 287.35,1129.07 
  "/>
<polyline clip-path="url(#clip5100)" style="stroke:#000000; stroke-width:4; stroke-opacity:1; fill:none" points="
  255.898,1033.25 287.35,1033.25 
  "/>
<polyline clip-path="url(#clip5100)" style="stroke:#000000; stroke-width:4; stroke-opacity:1; fill:none" points="
  255.898,937.424 287.35,937.424 
  "/>
<g clip-path="url(#clip5100)">
<text style="fill:#000000; fill-opacity:1; font-family:Arial,Helvetica Neue,Helvetica,sans-serif; font-size:48px; text-anchor:middle;" transform="rotate(0, 315.243, 1479.62)" x="315.243" y="1479.62">0</text>
</g>
<g clip-path="url(#clip5100)">
<text style="fill:#000000; fill-opacity:1; font-family:Arial,Helvetica Neue,Helvetica,sans-serif; font-size:48px; text-anchor:middle;" transform="rotate(0, 727.361, 1479.62)" x="727.361" y="1479.62">25</text>
</g>
<g clip-path="url(#clip5100)">
<text style="fill:#000000; fill-opacity:1; font-family:Arial,Helvetica Neue,Helvetica,sans-serif; font-size:48px; text-anchor:middle;" transform="rotate(0, 1139.48, 1479.62)" x="1139.48" y="1479.62">50</text>
</g>
<g clip-path="url(#clip5100)">
<text style="fill:#000000; fill-opacity:1; font-family:Arial,Helvetica Neue,Helvetica,sans-serif; font-size:48px; text-anchor:middle;" transform="rotate(0, 1551.6, 1479.62)" x="1551.6" y="1479.62">75</text>
</g>
<g clip-path="url(#clip5100)">
<text style="fill:#000000; fill-opacity:1; font-family:Arial,Helvetica Neue,Helvetica,sans-serif; font-size:48px; text-anchor:middle;" transform="rotate(0, 1963.72, 1479.62)" x="1963.72" y="1479.62">100</text>
</g>
<g clip-path="url(#clip5100)">
<text style="fill:#000000; fill-opacity:1; font-family:Arial,Helvetica Neue,Helvetica,sans-serif; font-size:48px; text-anchor:end;" transform="rotate(0, 231.898, 1434.04)" x="231.898" y="1434.04">0</text>
</g>
<g clip-path="url(#clip5100)">
<text style="fill:#000000; fill-opacity:1; font-family:Arial,Helvetica Neue,Helvetica,sans-serif; font-size:48px; text-anchor:end;" transform="rotate(0, 231.898, 1338.22)" x="231.898" y="1338.22">1000</text>
</g>
<g clip-path="url(#clip5100)">
<text style="fill:#000000; fill-opacity:1; font-family:Arial,Helvetica Neue,Helvetica,sans-serif; font-size:48px; text-anchor:end;" transform="rotate(0, 231.898, 1242.4)" x="231.898" y="1242.4">2000</text>
</g>
<g clip-path="url(#clip5100)">
<text style="fill:#000000; fill-opacity:1; font-family:Arial,Helvetica Neue,Helvetica,sans-serif; font-size:48px; text-anchor:end;" transform="rotate(0, 231.898, 1146.57)" x="231.898" y="1146.57">3000</text>
</g>
<g clip-path="url(#clip5100)">
<text style="fill:#000000; fill-opacity:1; font-family:Arial,Helvetica Neue,Helvetica,sans-serif; font-size:48px; text-anchor:end;" transform="rotate(0, 231.898, 1050.75)" x="231.898" y="1050.75">4000</text>
</g>
<g clip-path="url(#clip5100)">
<text style="fill:#000000; fill-opacity:1; font-family:Arial,Helvetica Neue,Helvetica,sans-serif; font-size:48px; text-anchor:end;" transform="rotate(0, 231.898, 954.924)" x="231.898" y="954.924">5000</text>
</g>
<g clip-path="url(#clip5100)">
<text style="fill:#000000; fill-opacity:1; font-family:Arial,Helvetica Neue,Helvetica,sans-serif; font-size:84px; text-anchor:middle;" transform="rotate(0, 1304.33, 873.2)" x="1304.33" y="873.2">Population Simulation</text>
</g>
<g clip-path="url(#clip5100)">
<text style="fill:#000000; fill-opacity:1; font-family:Arial,Helvetica Neue,Helvetica,sans-serif; font-size:66px; text-anchor:middle;" transform="rotate(0, 1304.33, 1559.48)" x="1304.33" y="1559.48">time</text>
</g>
<g clip-path="url(#clip5100)">
<text style="fill:#000000; fill-opacity:1; font-family:Arial,Helvetica Neue,Helvetica,sans-serif; font-size:66px; text-anchor:middle;" transform="rotate(-90, 89.2861, 1173.65)" x="89.2861" y="1173.65">dv</text>
</g>
<polyline clip-path="url(#clip5103)" style="stroke:#009af9; stroke-width:6; stroke-opacity:1; fill:none" points="
  315.243,1279.56 331.727,1278.09 348.212,1271.51 364.697,1250.51 381.182,1251.93 397.666,1287.23 414.151,1283.45 430.636,1260.23 447.121,1308.86 463.605,1330.48 
  480.09,1290.27 496.575,1306.77 513.059,1318.88 529.544,1267.55 546.029,1305.22 562.514,1338.07 578.998,1326.95 595.483,1326.45 611.968,1335.5 628.453,1332.22 
  644.937,1326.93 661.422,1356.82 677.907,1341.68 694.392,1346.7 710.876,1118.86 727.361,1180.34 743.846,1180.16 760.33,1243.4 776.815,1221.54 793.3,1166.06 
  809.785,1199.28 826.269,1216.6 842.754,1219.62 859.239,1204.25 875.724,1299.21 892.208,1256.16 908.693,1246.77 925.178,1262.21 941.663,1249.16 958.147,1268.32 
  974.632,1264.39 991.117,1274.37 1007.6,1248.21 1024.09,1297.43 1040.57,1322.81 1057.06,1288.03 1073.54,1323.64 1090.03,1310.05 1106.51,1115.16 1122.99,1130.21 
  1139.48,1244.4 1155.96,1197.32 1172.45,1246.73 1188.93,1168.7 1205.42,1124.66 1221.9,1277.72 1238.39,1209.05 1254.87,1216.59 1271.36,1238.74 1287.84,1263.89 
  1304.33,1227.36 1320.81,1320.12 1337.3,1283.28 1353.78,1295.65 1370.27,1324.61 1386.75,1253.24 1403.24,1327.67 1419.72,1301.55 1436.2,1319.57 1452.69,1353.8 
  1469.17,1271.24 1485.66,1299.39 1502.14,1103.12 1518.63,1139.12 1535.11,1143.62 1551.6,1154.36 1568.08,1238.14 1584.57,1148.05 1601.05,1178.77 1617.54,1243.6 
  1634.02,1189.55 1650.51,1254.55 1666.99,1245.95 1683.48,1253.84 1699.96,1218.82 1716.45,1217.25 1732.93,1298.47 1749.41,1232.97 1765.9,1291.84 1782.38,1249.87 
  1798.87,1300.66 1815.35,1274.89 1831.84,1310.69 1848.32,1329.82 1864.81,1312.61 1881.29,1318.36 1897.78,1071.86 1914.26,1194.57 1930.75,1155.1 1947.23,1243.85 
  1963.72,1165.94 1980.2,1141.53 1996.69,1185.65 2013.17,1190.09 2029.66,1317.94 2046.14,1259.22 2062.62,1228 2079.11,1221.4 2095.59,1240.95 2112.08,1250.62 
  2128.56,1312.29 2145.05,1275.81 2161.53,1291.82 2178.02,1383.65 2194.5,1250.38 2210.99,1268.42 2227.47,1293.78 2243.96,1281.6 2260.44,1302.2 2276.93,1254.64 
  2293.41,1340.33 
  "/>
<polyline clip-path="url(#clip5103)" style="stroke:#e26f46; stroke-width:6; stroke-opacity:1; fill:none" points="
  315.243,1185.03 331.727,1261.09 348.212,1237.93 364.697,1242.54 381.182,1197.39 397.666,1208.66 414.151,1247.97 430.636,1247.51 447.121,1301.79 463.605,1255.8 
  480.09,1233.91 496.575,1249.35 513.059,1287.53 529.544,1277.47 546.029,1335.38 562.514,1257.93 578.998,1309.45 595.483,1290.24 611.968,1301.92 628.453,1303.76 
  644.937,1319.28 661.422,1308.03 677.907,1318.53 694.392,1310.54 710.876,1063.63 727.361,1128.19 743.846,1092.53 760.33,1217.88 776.815,1041.81 793.3,1061.94 
  809.785,1074.93 826.269,1201.88 842.754,1200.98 859.239,1187.89 875.724,1155.97 892.208,1173.41 908.693,1147.71 925.178,1276.93 941.663,1279.14 958.147,1212.31 
  974.632,1227.54 991.117,1200.85 1007.6,1225.26 1024.09,1263.77 1040.57,1362.28 1057.06,1299.7 1073.54,1249.55 1090.03,1267.94 1106.51,1207.06 1122.99,1000.58 
  1139.48,1109.66 1155.96,1162.4 1172.45,1247.69 1188.93,1225.83 1205.42,1215.08 1221.9,1161.95 1238.39,1109.52 1254.87,1082.62 1271.36,1203.49 1287.84,1151.8 
  1304.33,1250.71 1320.81,1137.52 1337.3,1158.98 1353.78,1201.13 1370.27,1232.28 1386.75,1188.48 1403.24,1261.96 1419.72,1245.99 1436.2,1251.97 1452.69,1190.49 
  1469.17,1217.66 1485.66,1279.54 1502.14,1033.64 1518.63,1106.1 1535.11,1063.03 1551.6,1195.35 1568.08,1212.11 1584.57,1149.69 1601.05,1002.8 1617.54,1116.16 
  1634.02,1177.38 1650.51,1163.46 1666.99,1160.75 1683.48,1101.02 1699.96,1157.63 1716.45,1173.5 1732.93,1139.33 1749.41,1181.12 1765.9,1217.81 1782.38,1225.23 
  1798.87,1136.39 1815.35,1200.75 1831.84,1179.81 1848.32,1225.63 1864.81,1228.56 1881.29,1247.97 1897.78,1045.6 1914.26,1020.45 1930.75,1095.04 1947.23,1136.67 
  1963.72,1041.92 1980.2,1043.5 1996.69,1085.74 2013.17,1148.25 2029.66,1155.87 2046.14,1056.22 2062.62,1185.12 2079.11,1189.97 2095.59,1206.48 2112.08,1291.65 
  2128.56,1177.16 2145.05,1271.85 2161.53,1203.58 2178.02,1120.53 2194.5,1186.7 2210.99,1309.05 2227.47,1147.67 2243.96,1237.51 2260.44,1199.64 2276.93,1225.18 
  2293.41,1255.62 
  "/>
<polyline clip-path="url(#clip5103)" style="stroke:#3da44d; stroke-width:6; stroke-opacity:1; fill:none" points="
  315.243,1248 331.727,1262.17 348.212,1254.73 364.697,1300.41 381.182,1307.68 397.666,1304.15 414.151,1311.59 430.636,1348.67 447.121,1363.76 463.605,1352.75 
  480.09,1383.04 496.575,1365.85 513.059,1367.53 529.544,1370.13 546.029,1386.35 562.514,1385.08 578.998,1383.47 595.483,1392 611.968,1392.99 628.453,1395.92 
  644.937,1397.61 661.422,1400.54 677.907,1400.13 694.392,1399.84 710.876,1263.87 727.361,1259.48 743.846,1208.31 760.33,1294.08 776.815,1299.79 793.3,1298.42 
  809.785,1315.85 826.269,1339.93 842.754,1332.86 859.239,1355.41 875.724,1327.19 892.208,1338.56 908.693,1361.85 925.178,1374.01 941.663,1375.66 958.147,1389.19 
  974.632,1382.06 991.117,1386.07 1007.6,1395.23 1024.09,1396.15 1040.57,1401.3 1057.06,1404.72 1073.54,1406.53 1090.03,1406.07 1106.51,1223.02 1122.99,1242.38 
  1139.48,1303.53 1155.96,1243.58 1172.45,1286.08 1188.93,1325.74 1205.42,1313.65 1221.9,1327.53 1238.39,1326.84 1254.87,1342.56 1271.36,1375.21 1287.84,1379.89 
  1304.33,1375.32 1320.81,1359.19 1337.3,1388.38 1353.78,1386.18 1370.27,1390.14 1386.75,1397.49 1403.24,1390.06 1419.72,1392.23 1436.2,1393.26 1452.69,1401.52 
  1469.17,1401.1 1485.66,1399.82 1502.14,1210.96 1518.63,1223.95 1535.11,1231.2 1551.6,1297.68 1568.08,1291.01 1584.57,1265.49 1601.05,1352.85 1617.54,1356.81 
  1634.02,1340.49 1650.51,1332.87 1666.99,1357.95 1683.48,1355.56 1699.96,1381.15 1716.45,1357.52 1732.93,1382.82 1749.41,1386.72 1765.9,1386.03 1782.38,1378 
  1798.87,1386.49 1815.35,1393.1 1831.84,1397.17 1848.32,1404.62 1864.81,1403.7 1881.29,1397.54 1897.78,1192.16 1914.26,1294.15 1930.75,1263.82 1947.23,1281.84 
  1963.72,1284.64 1980.2,1283.96 1996.69,1285.96 2013.17,1328.07 2029.66,1361.22 2046.14,1366.67 2062.62,1340.53 2079.11,1372.57 2095.59,1370.93 2112.08,1370.22 
  2128.56,1394 2145.05,1389.34 2161.53,1389.3 2178.02,1386.8 2194.5,1388.82 2210.99,1398.22 2227.47,1395.49 2243.96,1398.62 2260.44,1399.74 2276.93,1401.15 
  2293.41,1405.51 
  "/>
<polyline clip-path="url(#clip5103)" style="stroke:#c271d2; stroke-width:6; stroke-opacity:1; fill:none" points="
  315.243,1225.35 331.727,1293.43 348.212,1256.5 364.697,1291.64 381.182,1260.61 397.666,1295.41 414.151,1304.33 430.636,1339.14 447.121,1336.64 463.605,1366.01 
  480.09,1353.55 496.575,1334.37 513.059,1371.14 529.544,1363.96 546.029,1376.9 562.514,1364.19 578.998,1363.93 595.483,1381.86 611.968,1382.34 628.453,1391.01 
  644.937,1391.76 661.422,1393.72 677.907,1394.2 694.392,1398.57 710.876,1227.33 727.361,1221.09 743.846,1256.88 760.33,1294.66 776.815,1288.34 793.3,1266 
  809.785,1331.94 826.269,1352.7 842.754,1307.21 859.239,1333.67 875.724,1311.38 892.208,1361.85 908.693,1351.44 925.178,1348.89 941.663,1357.79 958.147,1364.8 
  974.632,1363.69 991.117,1389.81 1007.6,1379.04 1024.09,1381.16 1040.57,1389.47 1057.06,1396.75 1073.54,1392.73 1090.03,1397.5 1106.51,1237.11 1122.99,1206.08 
  1139.48,1208.9 1155.96,1237.21 1172.45,1279.35 1188.93,1304.66 1205.42,1311.74 1221.9,1322.77 1238.39,1321.85 1254.87,1354.5 1271.36,1346.06 1287.84,1340.29 
  1304.33,1348.24 1320.81,1362.14 1337.3,1361.69 1353.78,1368.39 1370.27,1373.18 1386.75,1376.63 1403.24,1391.55 1419.72,1393.3 1436.2,1387.43 1452.69,1390.93 
  1469.17,1398.68 1485.66,1396.45 1502.14,1262 1518.63,1276.2 1535.11,1241.21 1551.6,1294.17 1568.08,1253.82 1584.57,1326 1601.05,1325.99 1617.54,1315.93 
  1634.02,1336.56 1650.51,1327.07 1666.99,1344.65 1683.48,1329.92 1699.96,1355.67 1716.45,1331.44 1732.93,1363.54 1749.41,1360.02 1765.9,1361.31 1782.38,1371.86 
  1798.87,1387.47 1815.35,1386.88 1831.84,1381.26 1848.32,1387.89 1864.81,1389.67 1881.29,1400.2 1897.78,1205.13 1914.26,1244.48 1930.75,1247.74 1947.23,1279.57 
  1963.72,1273.27 1980.2,1290.41 1996.69,1264 2013.17,1313.69 2029.66,1321.61 2046.14,1313.38 2062.62,1316.1 2079.11,1349.61 2095.59,1349.85 2112.08,1358.93 
  2128.56,1380.63 2145.05,1359.54 2161.53,1361.58 2178.02,1376.44 2194.5,1358.05 2210.99,1390.48 2227.47,1388.58 2243.96,1381.28 2260.44,1392.67 2276.93,1398.99 
  2293.41,1395.19 
  "/>
<polyline clip-path="url(#clip5103)" style="stroke:#ac8d18; stroke-width:6; stroke-opacity:1; fill:none" points="
  315.243,1220.53 331.727,1298.12 348.212,1322.04 364.697,1333.8 381.182,1309.14 397.666,1346.58 414.151,1372.02 430.636,1351.87 447.121,1374.88 463.605,1358.45 
  480.09,1368.13 496.575,1365.53 513.059,1386.61 529.544,1401.22 546.029,1398.34 562.514,1383.91 578.998,1401.96 595.483,1404.53 611.968,1403.13 628.453,1407.03 
  644.937,1401.86 661.422,1405.4 677.907,1411.22 694.392,1406.8 710.876,1245.08 727.361,1244.49 743.846,1316.78 760.33,1318.48 776.815,1323.73 793.3,1313.62 
  809.785,1343.77 826.269,1345.71 842.754,1351.96 859.239,1368.91 875.724,1355.16 892.208,1368.93 908.693,1375.26 925.178,1382.19 941.663,1394.41 958.147,1393.28 
  974.632,1397.48 991.117,1396.14 1007.6,1395.64 1024.09,1402.98 1040.57,1403.55 1057.06,1406.72 1073.54,1407.71 1090.03,1406.35 1106.51,1215.47 1122.99,1261.64 
  1139.48,1307.11 1155.96,1296.09 1172.45,1318.07 1188.93,1342.44 1205.42,1354.01 1221.9,1352.15 1238.39,1343 1254.87,1338.72 1271.36,1358.17 1287.84,1380.88 
  1304.33,1393.04 1320.81,1387.43 1337.3,1389.84 1353.78,1395.53 1370.27,1401.44 1386.75,1401.3 1403.24,1404.45 1419.72,1400.79 1436.2,1407.28 1452.69,1406.46 
  1469.17,1406.99 1485.66,1408.26 1502.14,1305.3 1518.63,1315.09 1535.11,1264.47 1551.6,1331.02 1568.08,1281.74 1584.57,1316.04 1601.05,1334.95 1617.54,1339.37 
  1634.02,1361.38 1650.51,1372.87 1666.99,1374.79 1683.48,1361.92 1699.96,1387.83 1716.45,1374.67 1732.93,1396.67 1749.41,1394.99 1765.9,1400.56 1782.38,1397.14 
  1798.87,1403.04 1815.35,1401.75 1831.84,1406.48 1848.32,1407.1 1864.81,1404.96 1881.29,1409.89 1897.78,1268.88 1914.26,1251.53 1930.75,1250.87 1947.23,1295.52 
  1963.72,1338.82 1980.2,1295.93 1996.69,1334.48 2013.17,1352.03 2029.66,1374.3 2046.14,1358.51 2062.62,1388.26 2079.11,1375.11 2095.59,1392.57 2112.08,1389.51 
  2128.56,1398.61 2145.05,1396.37 2161.53,1394.84 2178.02,1405.83 2194.5,1403.36 2210.99,1402.57 2227.47,1406.04 2243.96,1404.73 2260.44,1409.5 2276.93,1408.36 
  2293.41,1411.36 
  "/>
<polyline clip-path="url(#clip5103)" style="stroke:#00a9ad; stroke-width:6; stroke-opacity:1; fill:none" points="
  315.243,1234.21 331.727,1300.99 348.212,1260.22 364.697,1282.76 381.182,1289.75 397.666,1305.53 414.151,1358.73 430.636,1325.95 447.121,1349.75 463.605,1349.47 
  480.09,1354.84 496.575,1340.44 513.059,1372.96 529.544,1371.94 546.029,1379.91 562.514,1376.66 578.998,1373.85 595.483,1373.52 611.968,1389.63 628.453,1380.89 
  644.937,1388.42 661.422,1392.8 677.907,1393.62 694.392,1399.07 710.876,1205.17 727.361,1236.84 743.846,1247.04 760.33,1271.18 776.815,1258.59 793.3,1295.63 
  809.785,1289.81 826.269,1316.84 842.754,1324.53 859.239,1327.09 875.724,1337.18 892.208,1349.56 908.693,1364.65 925.178,1375.08 941.663,1364.15 958.147,1366.97 
  974.632,1378.57 991.117,1368.09 1007.6,1379.61 1024.09,1384.74 1040.57,1396.4 1057.06,1384.06 1073.54,1400.72 1090.03,1398.08 1106.51,1219.61 1122.99,1252.44 
  1139.48,1296.91 1155.96,1265.29 1172.45,1303.24 1188.93,1332.57 1205.42,1317.97 1221.9,1318.26 1238.39,1310.7 1254.87,1330.87 1271.36,1354.49 1287.84,1335.71 
  1304.33,1355.38 1320.81,1375.26 1337.3,1354.68 1353.78,1375.38 1370.27,1369.09 1386.75,1375.4 1403.24,1377.73 1419.72,1388.08 1436.2,1392.36 1452.69,1394.46 
  1469.17,1394.99 1485.66,1405.87 1502.14,1261.01 1518.63,1205.18 1535.11,1250.94 1551.6,1213.58 1568.08,1264.7 1584.57,1288.94 1601.05,1313.73 1617.54,1305.12 
  1634.02,1320.03 1650.51,1334.67 1666.99,1348 1683.48,1385.35 1699.96,1362.86 1716.45,1361.56 1732.93,1366.86 1749.41,1375.16 1765.9,1374.96 1782.38,1381.54 
  1798.87,1382.45 1815.35,1391.8 1831.84,1403.42 1848.32,1395.35 1864.81,1384.32 1881.29,1395.44 1897.78,1248.1 1914.26,1260.08 1930.75,1209.1 1947.23,1267.16 
  1963.72,1258.92 1980.2,1303.72 1996.69,1281 2013.17,1316.69 2029.66,1329.96 2046.14,1335.22 2062.62,1337.11 2079.11,1360.52 2095.59,1364.49 2112.08,1361.63 
  2128.56,1353.21 2145.05,1382.78 2161.53,1377.79 2178.02,1380.47 2194.5,1385.34 2210.99,1384.57 2227.47,1391.83 2243.96,1388.98 2260.44,1401.56 2276.93,1391.57 
  2293.41,1398.92 
  "/>
<polyline clip-path="url(#clip5103)" style="stroke:#ed5d92; stroke-width:6; stroke-opacity:1; fill:none" points="
  315.243,1326.34 331.727,1343.93 348.212,1334.02 364.697,1365.33 381.182,1333.87 397.666,1345.03 414.151,1337.5 430.636,1333.03 447.121,1347.13 463.605,1340.36 
  480.09,1348.61 496.575,1341.27 513.059,1370.03 529.544,1354.89 546.029,1359.19 562.514,1346.22 578.998,1363.92 595.483,1360.17 611.968,1379.03 628.453,1365.72 
  644.937,1348.29 661.422,1363.8 677.907,1357.91 694.392,1359.14 710.876,1317.44 727.361,1248.42 743.846,1299.9 760.33,1289.26 776.815,1275.24 793.3,1287.74 
  809.785,1298.19 826.269,1292.93 842.754,1281.98 859.239,1302.25 875.724,1272.29 892.208,1309.16 908.693,1288.31 925.178,1320.22 941.663,1308.37 958.147,1302.84 
  974.632,1271.03 991.117,1309.3 1007.6,1267.96 1024.09,1305.4 1040.57,1295.32 1057.06,1306.27 1073.54,1326.15 1090.03,1291.78 1106.51,1182.15 1122.99,1208.36 
  1139.48,1286.98 1155.96,1221.6 1172.45,1297.3 1188.93,1260.81 1205.42,1249.51 1221.9,1257.77 1238.39,1310.69 1254.87,1249.54 1271.36,1224.54 1287.84,1249.81 
  1304.33,1287.28 1320.81,1237.71 1337.3,1318.3 1353.78,1287.53 1370.27,1225.23 1386.75,1286.41 1403.24,1259.29 1419.72,1224.65 1436.2,1277.52 1452.69,1299.15 
  1469.17,1232.19 1485.66,1271.17 1502.14,1173.63 1518.63,1263.34 1535.11,1198.86 1551.6,1308.39 1568.08,1219.56 1584.57,1197.91 1601.05,1238.27 1617.54,1252.36 
  1634.02,1224.17 1650.51,1197.22 1666.99,1210.12 1683.48,1228.23 1699.96,1251.67 1716.45,1240.04 1732.93,1183.48 1749.41,1237.58 1765.9,1251.04 1782.38,1199.53 
  1798.87,1271.03 1815.35,1177.73 1831.84,1325.12 1848.32,1272.02 1864.81,1242.95 1881.29,1286.73 1897.78,1160.48 1914.26,1166.27 1930.75,1153.67 1947.23,1187.73 
  1963.72,1201.11 1980.2,1215.25 1996.69,1189.41 2013.17,1203.16 2029.66,1117.1 2046.14,1124.28 2062.62,1209.33 2079.11,1146 2095.59,1254.55 2112.08,1169.72 
  2128.56,1214.16 2145.05,1170.95 2161.53,1275.33 2178.02,1202.59 2194.5,1187.56 2210.99,1212.33 2227.47,1226.84 2243.96,1225.49 2260.44,1199.53 2276.93,1206.16 
  2293.41,1203.91 
  "/>
<polyline clip-path="url(#clip5103)" style="stroke:#c68125; stroke-width:6; stroke-opacity:1; fill:none" points="
  315.243,1206.72 331.727,1191.65 348.212,1302.69 364.697,1169.97 381.182,1210.88 397.666,1206.54 414.151,1172.16 430.636,1196.44 447.121,1267.25 463.605,1255.81 
  480.09,1310.72 496.575,1275.71 513.059,1240.06 529.544,1239.27 546.029,1293.48 562.514,1292.2 578.998,1364.56 595.483,1277.59 611.968,1288 628.453,1317.49 
  644.937,1276.92 661.422,1280.7 677.907,1300.89 694.392,1311.09 710.876,1138.05 727.361,1172.98 743.846,1036.28 760.33,1106.94 776.815,1147.34 793.3,1119.15 
  809.785,1234.38 826.269,1201.5 842.754,1082.39 859.239,1128.14 875.724,1137.6 892.208,1183.14 908.693,1179.67 925.178,1231.32 941.663,1234.63 958.147,1186.23 
  974.632,1215.36 991.117,1304.28 1007.6,1142.82 1024.09,1234.42 1040.57,1211.07 1057.06,1215.46 1073.54,1226.82 1090.03,1277.59 1106.51,1064.86 1122.99,935.938 
  1139.48,1099.12 1155.96,1005.64 1172.45,1204.85 1188.93,1017.15 1205.42,1094.49 1221.9,1074.18 1238.39,1177.45 1254.87,1107.85 1271.36,1152.82 1287.84,1249.66 
  1304.33,1064.69 1320.81,1116.73 1337.3,1254.19 1353.78,1191.12 1370.27,1173.91 1386.75,1206.72 1403.24,1175.38 1419.72,1179.77 1436.2,1262.15 1452.69,1222.11 
  1469.17,1237.75 1485.66,1186.58 1502.14,1131.11 1518.63,994.067 1535.11,1004.44 1551.6,1118.98 1568.08,1060.29 1584.57,1123.4 1601.05,1108.68 1617.54,1140.08 
  1634.02,1079.84 1650.51,1130.35 1666.99,1132.93 1683.48,1176.3 1699.96,1057.63 1716.45,1111.77 1732.93,1072.08 1749.41,1180.54 1765.9,1162.97 1782.38,1113.58 
  1798.87,1142.04 1815.35,1180.3 1831.84,1158.87 1848.32,1164.2 1864.81,1155.6 1881.29,1262.46 1897.78,1091.03 1914.26,1017.48 1930.75,1057.36 1947.23,1072.17 
  1963.72,1006.83 1980.2,976.845 1996.69,1082.23 2013.17,1048.95 2029.66,1101.67 2046.14,1049.06 2062.62,1198.82 2079.11,998.355 2095.59,1258.51 2112.08,1077.8 
  2128.56,1059.98 2145.05,1141.84 2161.53,1278.67 2178.02,1155.71 2194.5,1161.07 2210.99,1121.93 2227.47,1246.63 2243.96,1279.73 2260.44,1178.45 2276.93,1251.8 
  2293.41,1246.43 
  "/>
<polyline clip-path="url(#clip5103)" style="stroke:#00a98d; stroke-width:6; stroke-opacity:1; fill:none" points="
  315.243,1307.13 331.727,1286.07 348.212,1328.49 364.697,1339.25 381.182,1347.44 397.666,1321.72 414.151,1325.35 430.636,1312.61 447.121,1346.96 463.605,1337.83 
  480.09,1344.04 496.575,1342.43 513.059,1350.56 529.544,1338.69 546.029,1357.76 562.514,1364.56 578.998,1370.03 595.483,1384.11 611.968,1373.5 628.453,1342.95 
  644.937,1365.89 661.422,1356.96 677.907,1358.85 694.392,1365.02 710.876,1239.25 727.361,1268.57 743.846,1258.73 760.33,1259.91 776.815,1265.21 793.3,1220.98 
  809.785,1292.23 826.269,1300.69 842.754,1285.06 859.239,1281.9 875.724,1269.87 892.208,1284.94 908.693,1341.5 925.178,1356.86 941.663,1331.32 958.147,1287.05 
  974.632,1341.29 991.117,1318.98 1007.6,1363.94 1024.09,1328.22 1040.57,1363.7 1057.06,1357.71 1073.54,1331.38 1090.03,1351.47 1106.51,1290.03 1122.99,1275 
  1139.48,1274.61 1155.96,1230.98 1172.45,1272.01 1188.93,1251.59 1205.42,1265.34 1221.9,1300.23 1238.39,1279.01 1254.87,1264.46 1271.36,1303.19 1287.84,1273.61 
  1304.33,1291.64 1320.81,1330.67 1337.3,1271.41 1353.78,1275.73 1370.27,1293.48 1386.75,1263.76 1403.24,1309.6 1419.72,1294.36 1436.2,1377.72 1452.69,1349.24 
  1469.17,1328.52 1485.66,1320.6 1502.14,1244.86 1518.63,1248.09 1535.11,1264.85 1551.6,1288.19 1568.08,1146.97 1584.57,1216.2 1601.05,1250.77 1617.54,1258.02 
  1634.02,1230.98 1650.51,1252.08 1666.99,1298.26 1683.48,1260.25 1699.96,1271.88 1716.45,1237.76 1732.93,1309.55 1749.41,1311.44 1765.9,1277.12 1782.38,1298.8 
  1798.87,1345.53 1815.35,1269.18 1831.84,1332.72 1848.32,1305.7 1864.81,1319.69 1881.29,1327.14 1897.78,1224.67 1914.26,1209.71 1930.75,1248.25 1947.23,1257.18 
  1963.72,1264.84 1980.2,1247.36 1996.69,1253.51 2013.17,1281.05 2029.66,1234.86 2046.14,1300.25 2062.62,1287.12 2079.11,1283.77 2095.59,1269.7 2112.08,1271.69 
  2128.56,1284.11 2145.05,1273.44 2161.53,1305.76 2178.02,1309.26 2194.5,1314.38 2210.99,1294.4 2227.47,1349.37 2243.96,1303.71 2260.44,1300.98 2276.93,1310.97 
  2293.41,1321.5 
  "/>
<polyline clip-path="url(#clip5103)" style="stroke:#8e971d; stroke-width:6; stroke-opacity:1; fill:none" points="
  315.243,1316.01 331.727,1310.33 348.212,1296.34 364.697,1347.52 381.182,1339.05 397.666,1344.1 414.151,1324.39 430.636,1354.97 447.121,1335.1 463.605,1349.17 
  480.09,1363.14 496.575,1341.1 513.059,1353.39 529.544,1360.74 546.029,1375.67 562.514,1357.16 578.998,1388.62 595.483,1380.93 611.968,1369.76 628.453,1364.34 
  644.937,1356.76 661.422,1367.28 677.907,1390.42 694.392,1362.78 710.876,1269.55 727.361,1339.14 743.846,1320.65 760.33,1302.17 776.815,1315.11 793.3,1328.54 
  809.785,1330.69 826.269,1307.82 842.754,1300.7 859.239,1314.08 875.724,1367.07 892.208,1334.43 908.693,1320.66 925.178,1327.72 941.663,1335.38 958.147,1331.86 
  974.632,1328.88 991.117,1355.1 1007.6,1356.79 1024.09,1347.82 1040.57,1355.77 1057.06,1330.98 1073.54,1352.62 1090.03,1361.43 1106.51,1232.76 1122.99,1296 
  1139.48,1312.2 1155.96,1262.46 1172.45,1262.94 1188.93,1294.97 1205.42,1329.94 1221.9,1282.31 1238.39,1242.5 1254.87,1349.51 1271.36,1336.03 1287.84,1342.36 
  1304.33,1319.61 1320.81,1359.94 1337.3,1311.48 1353.78,1331.75 1370.27,1311.52 1386.75,1319.39 1403.24,1344.67 1419.72,1344.27 1436.2,1369.44 1452.69,1331.39 
  1469.17,1350.84 1485.66,1376.34 1502.14,1271.93 1518.63,1307.43 1535.11,1304.21 1551.6,1275.02 1568.08,1286.04 1584.57,1300.47 1601.05,1287.47 1617.54,1321.48 
  1634.02,1296.41 1650.51,1282.79 1666.99,1314.37 1683.48,1316.34 1699.96,1336.99 1716.45,1309.19 1732.93,1324.31 1749.41,1323.67 1765.9,1344.61 1782.38,1364.04 
  1798.87,1355.19 1815.35,1337.62 1831.84,1346.95 1848.32,1314.26 1864.81,1337.15 1881.29,1352.93 1897.78,1264.69 1914.26,1319.74 1930.75,1309.87 1947.23,1295.88 
  1963.72,1262.71 1980.2,1316.89 1996.69,1313.19 2013.17,1325.62 2029.66,1300.11 2046.14,1316.18 2062.62,1287.06 2079.11,1311.64 2095.59,1296.2 2112.08,1312.56 
  2128.56,1306.94 2145.05,1348.22 2161.53,1348.92 2178.02,1348.73 2194.5,1333.62 2210.99,1335.22 2227.47,1329.91 2243.96,1374.26 2260.44,1348.04 2276.93,1352.35 
  2293.41,1358.12 
  "/>
</svg>
