<?xml version="1.0" encoding="utf-8"?>
<svg xmlns="http://www.w3.org/2000/svg" xmlns:xlink="http://www.w3.org/1999/xlink" width="600" height="400" viewBox="0 0 2400 1600">
<defs>
  <clipPath id="clip5400">
    <rect x="0" y="0" width="2400" height="1600"/>
  </clipPath>
</defs>
<path clip-path="url(#clip5400)" d="
M0 1600 L2400 1600 L2400 0 L0 0  Z
  " fill="#ffffff" fill-rule="evenodd" fill-opacity="1"/>
<defs>
  <clipPath id="clip5401">
    <rect x="480" y="0" width="1681" height="1600"/>
  </clipPath>
</defs>
<path clip-path="url(#clip5400)" d="
M194.041 1425.62 L2352.76 1425.62 L2352.76 121.675 L194.041 121.675  Z
  " fill="#ffffff" fill-rule="evenodd" fill-opacity="1"/>
<defs>
  <clipPath id="clip5402">
    <rect x="194" y="121" width="2160" height="1305"/>
  </clipPath>
</defs>
<polyline clip-path="url(#clip5402)" style="stroke:#000000; stroke-width:2; stroke-opacity:0.1; fill:none" points="
  255.137,1425.62 255.137,121.675 
  "/>
<polyline clip-path="url(#clip5402)" style="stroke:#000000; stroke-width:2; stroke-opacity:0.1; fill:none" points="
  679.413,1425.62 679.413,121.675 
  "/>
<polyline clip-path="url(#clip5402)" style="stroke:#000000; stroke-width:2; stroke-opacity:0.1; fill:none" points="
  1103.69,1425.62 1103.69,121.675 
  "/>
<polyline clip-path="url(#clip5402)" style="stroke:#000000; stroke-width:2; stroke-opacity:0.1; fill:none" points="
  1527.96,1425.62 1527.96,121.675 
  "/>
<polyline clip-path="url(#clip5402)" style="stroke:#000000; stroke-width:2; stroke-opacity:0.1; fill:none" points="
  1952.24,1425.62 1952.24,121.675 
  "/>
<polyline clip-path="url(#clip5402)" style="stroke:#000000; stroke-width:2; stroke-opacity:0.1; fill:none" points="
  194.041,1398.06 2352.76,1398.06 
  "/>
<polyline clip-path="url(#clip5402)" style="stroke:#000000; stroke-width:2; stroke-opacity:0.1; fill:none" points="
  194.041,1156.6 2352.76,1156.6 
  "/>
<polyline clip-path="url(#clip5402)" style="stroke:#000000; stroke-width:2; stroke-opacity:0.1; fill:none" points="
  194.041,915.145 2352.76,915.145 
  "/>
<polyline clip-path="url(#clip5402)" style="stroke:#000000; stroke-width:2; stroke-opacity:0.1; fill:none" points="
  194.041,673.686 2352.76,673.686 
  "/>
<polyline clip-path="url(#clip5402)" style="stroke:#000000; stroke-width:2; stroke-opacity:0.1; fill:none" points="
  194.041,432.228 2352.76,432.228 
  "/>
<polyline clip-path="url(#clip5402)" style="stroke:#000000; stroke-width:2; stroke-opacity:0.1; fill:none" points="
  194.041,190.769 2352.76,190.769 
  "/>
<polyline clip-path="url(#clip5400)" style="stroke:#000000; stroke-width:4; stroke-opacity:1; fill:none" points="
  194.041,1425.62 2352.76,1425.62 
  "/>
<polyline clip-path="url(#clip5400)" style="stroke:#000000; stroke-width:4; stroke-opacity:1; fill:none" points="
  194.041,1425.62 194.041,121.675 
  "/>
<polyline clip-path="url(#clip5400)" style="stroke:#000000; stroke-width:4; stroke-opacity:1; fill:none" points="
  255.137,1425.62 255.137,1406.06 
  "/>
<polyline clip-path="url(#clip5400)" style="stroke:#000000; stroke-width:4; stroke-opacity:1; fill:none" points="
  679.413,1425.62 679.413,1406.06 
  "/>
<polyline clip-path="url(#clip5400)" style="stroke:#000000; stroke-width:4; stroke-opacity:1; fill:none" points="
  1103.69,1425.62 1103.69,1406.06 
  "/>
<polyline clip-path="url(#clip5400)" style="stroke:#000000; stroke-width:4; stroke-opacity:1; fill:none" points="
  1527.96,1425.62 1527.96,1406.06 
  "/>
<polyline clip-path="url(#clip5400)" style="stroke:#000000; stroke-width:4; stroke-opacity:1; fill:none" points="
  1952.24,1425.62 1952.24,1406.06 
  "/>
<polyline clip-path="url(#clip5400)" style="stroke:#000000; stroke-width:4; stroke-opacity:1; fill:none" points="
  194.041,1398.06 226.422,1398.06 
  "/>
<polyline clip-path="url(#clip5400)" style="stroke:#000000; stroke-width:4; stroke-opacity:1; fill:none" points="
  194.041,1156.6 226.422,1156.6 
  "/>
<polyline clip-path="url(#clip5400)" style="stroke:#000000; stroke-width:4; stroke-opacity:1; fill:none" points="
  194.041,915.145 226.422,915.145 
  "/>
<polyline clip-path="url(#clip5400)" style="stroke:#000000; stroke-width:4; stroke-opacity:1; fill:none" points="
  194.041,673.686 226.422,673.686 
  "/>
<polyline clip-path="url(#clip5400)" style="stroke:#000000; stroke-width:4; stroke-opacity:1; fill:none" points="
  194.041,432.228 226.422,432.228 
  "/>
<polyline clip-path="url(#clip5400)" style="stroke:#000000; stroke-width:4; stroke-opacity:1; fill:none" points="
  194.041,190.769 226.422,190.769 
  "/>
<g clip-path="url(#clip5400)">
<text style="fill:#000000; fill-opacity:1; font-family:Arial,Helvetica Neue,Helvetica,sans-serif; font-size:48px; text-anchor:middle;" transform="rotate(0, 255.137, 1479.62)" x="255.137" y="1479.62">0</text>
</g>
<g clip-path="url(#clip5400)">
<text style="fill:#000000; fill-opacity:1; font-family:Arial,Helvetica Neue,Helvetica,sans-serif; font-size:48px; text-anchor:middle;" transform="rotate(0, 679.413, 1479.62)" x="679.413" y="1479.62">25</text>
</g>
<g clip-path="url(#clip5400)">
<text style="fill:#000000; fill-opacity:1; font-family:Arial,Helvetica Neue,Helvetica,sans-serif; font-size:48px; text-anchor:middle;" transform="rotate(0, 1103.69, 1479.62)" x="1103.69" y="1479.62">50</text>
</g>
<g clip-path="url(#clip5400)">
<text style="fill:#000000; fill-opacity:1; font-family:Arial,Helvetica Neue,Helvetica,sans-serif; font-size:48px; text-anchor:middle;" transform="rotate(0, 1527.96, 1479.62)" x="1527.96" y="1479.62">75</text>
</g>
<g clip-path="url(#clip5400)">
<text style="fill:#000000; fill-opacity:1; font-family:Arial,Helvetica Neue,Helvetica,sans-serif; font-size:48px; text-anchor:middle;" transform="rotate(0, 1952.24, 1479.62)" x="1952.24" y="1479.62">100</text>
</g>
<g clip-path="url(#clip5400)">
<text style="fill:#000000; fill-opacity:1; font-family:Arial,Helvetica Neue,Helvetica,sans-serif; font-size:48px; text-anchor:end;" transform="rotate(0, 170.041, 1415.56)" x="170.041" y="1415.56">0</text>
</g>
<g clip-path="url(#clip5400)">
<text style="fill:#000000; fill-opacity:1; font-family:Arial,Helvetica Neue,Helvetica,sans-serif; font-size:48px; text-anchor:end;" transform="rotate(0, 170.041, 1174.1)" x="170.041" y="1174.1">1000</text>
</g>
<g clip-path="url(#clip5400)">
<text style="fill:#000000; fill-opacity:1; font-family:Arial,Helvetica Neue,Helvetica,sans-serif; font-size:48px; text-anchor:end;" transform="rotate(0, 170.041, 932.645)" x="170.041" y="932.645">2000</text>
</g>
<g clip-path="url(#clip5400)">
<text style="fill:#000000; fill-opacity:1; font-family:Arial,Helvetica Neue,Helvetica,sans-serif; font-size:48px; text-anchor:end;" transform="rotate(0, 170.041, 691.186)" x="170.041" y="691.186">3000</text>
</g>
<g clip-path="url(#clip5400)">
<text style="fill:#000000; fill-opacity:1; font-family:Arial,Helvetica Neue,Helvetica,sans-serif; font-size:48px; text-anchor:end;" transform="rotate(0, 170.041, 449.728)" x="170.041" y="449.728">4000</text>
</g>
<g clip-path="url(#clip5400)">
<text style="fill:#000000; fill-opacity:1; font-family:Arial,Helvetica Neue,Helvetica,sans-serif; font-size:48px; text-anchor:end;" transform="rotate(0, 170.041, 208.269)" x="170.041" y="208.269">5000</text>
</g>
<g clip-path="url(#clip5400)">
<text style="fill:#000000; fill-opacity:1; font-family:Arial,Helvetica Neue,Helvetica,sans-serif; font-size:84px; text-anchor:middle;" transform="rotate(0, 1273.4, 73.2)" x="1273.4" y="73.2">Confidence interval VPC</text>
</g>
<g clip-path="url(#clip5400)">
<text style="fill:#000000; fill-opacity:1; font-family:Arial,Helvetica Neue,Helvetica,sans-serif; font-size:66px; text-anchor:middle;" transform="rotate(0, 1273.4, 1559.48)" x="1273.4" y="1559.48">time</text>
</g>
<polyline clip-path="url(#clip5402)" style="stroke:#ff0000; stroke-width:8; stroke-opacity:1; fill:none" stroke-dasharray="32, 16, 4, 16" points="
  255.137,1147.34 272.108,1138.89 289.079,1177.57 306.05,1228.62 323.021,1204.9 339.992,1218.26 356.963,1255.72 373.934,1235.88 390.905,1267.87 407.876,1253.58 
  424.847,1279.81 441.818,1269.59 458.789,1291.66 475.761,1293.04 492.732,1324.99 509.703,1316.13 526.674,1331.05 543.645,1339.36 560.616,1341.27 577.587,1348.89 
  594.558,1351.42 611.529,1358.95 628.5,1359.49 645.471,1357.71 662.442,1039.73 679.413,1042.98 696.384,1147.65 713.355,1113.96 730.326,1144.65 747.297,1142.47 
  764.268,1187.85 781.239,1221.34 798.21,1192 815.181,1247.41 832.152,1246.4 849.123,1262.03 866.094,1269.97 883.065,1295.36 900.036,1299.76 917.007,1330.17 
  933.978,1315.06 950.949,1332.28 967.92,1344.46 984.891,1348.39 1001.86,1360.22 1018.83,1368.76 1035.8,1373.14 1052.78,1371.75 1069.75,959.257 1086.72,1046.68 
  1103.69,1123.58 1120.66,1024.69 1137.63,1116.3 1154.6,1188.94 1171.57,1185.91 1188.54,1179.98 1205.51,1176.1 1222.49,1230.4 1239.46,1255.26 1256.43,1305.96 
  1273.4,1298.65 1290.37,1297.1 1307.34,1327.46 1324.31,1323.89 1341.28,1334.37 1358.25,1351.02 1375.22,1338.33 1392.2,1341.39 1409.17,1342.92 1426.14,1361.44 
  1443.11,1360.64 1460.08,1371.76 1477.05,1042.07 1494.02,1125.04 1510.99,1025.74 1527.96,1131.23 1544.94,1070.46 1561.91,1147.32 1578.88,1196.98 1595.85,1208 
  1612.82,1211.67 1629.79,1201.38 1646.76,1254.66 1663.73,1266.32 1680.7,1310.56 1697.67,1262.82 1714.65,1316.57 1731.62,1324.99 1748.59,1324.84 1765.56,1313.79 
  1782.53,1328.72 1799.5,1341.16 1816.47,1365.76 1833.44,1368.63 1850.41,1366.01 1867.38,1359.32 1884.36,1016.47 1901.33,1096.09 1918.3,1024.82 1935.27,1093.19 
  1952.24,1079.34 1969.21,1117.09 1986.18,1143 2003.15,1181.16 2020.12,1261.94 2037.09,1253.88 2054.07,1218.55 2071.04,1287.89 2088.01,1288.57 2104.98,1286.18 
  2121.95,1342.43 2138.92,1331.29 2155.89,1330.8 2172.86,1327.91 2189.83,1331.86 2206.81,1352.98 2223.78,1347.67 2240.75,1354.43 2257.72,1362.31 2274.69,1361.1 
  2291.66,1371.73 
  "/>
<path clip-path="url(#clip5402)" d="
M255.137 1147.34 L272.108 1138.89 L289.079 1177.57 L306.05 1228.62 L323.021 1204.9 L339.992 1218.26 L356.963 1255.72 L373.934 1235.88 L390.905 1267.87 L407.876 1253.58 
  L424.847 1279.81 L441.818 1269.59 L458.789 1291.66 L475.761 1293.04 L492.732 1324.99 L509.703 1316.13 L526.674 1331.05 L543.645 1339.36 L560.616 1341.27 L577.587 1348.89 
  L594.558 1351.42 L611.529 1358.95 L628.5 1359.49 L645.471 1357.71 L662.442 1039.73 L679.413 1042.98 L696.384 1147.65 L713.355 1113.96 L730.326 1144.65 L747.297 1142.47 
  L764.268 1187.85 L781.239 1221.34 L798.21 1192 L815.181 1247.41 L832.152 1246.4 L849.123 1262.03 L866.094 1269.97 L883.065 1295.36 L900.036 1299.76 L917.007 1330.17 
  L933.978 1315.06 L950.949 1332.28 L967.92 1344.46 L984.891 1348.39 L1001.86 1360.22 L1018.83 1368.76 L1035.8 1373.14 L1052.78 1371.75 L1069.75 959.257 L1086.72 1046.68 
  L1103.69 1123.58 L1120.66 1024.69 L1137.63 1116.3 L1154.6 1188.94 L1171.57 1185.91 L1188.54 1179.98 L1205.51 1176.1 L1222.49 1230.4 L1239.46 1255.26 L1256.43 1305.96 
  L1273.4 1298.65 L1290.37 1297.1 L1307.34 1327.46 L1324.31 1323.89 L1341.28 1334.37 L1358.25 1351.02 L1375.22 1338.33 L1392.2 1341.39 L1409.17 1342.92 L1426.14 1361.44 
  L1443.11 1360.64 L1460.08 1371.76 L1477.05 1042.07 L1494.02 1125.04 L1510.99 1025.74 L1527.96 1131.23 L1544.94 1070.46 L1561.91 1147.32 L1578.88 1196.98 L1595.85 1208 
  L1612.82 1211.67 L1629.79 1201.38 L1646.76 1254.66 L1663.73 1266.32 L1680.7 1310.56 L1697.67 1262.82 L1714.65 1316.57 L1731.62 1324.99 L1748.59 1324.84 L1765.56 1313.79 
  L1782.53 1328.72 L1799.5 1341.16 L1816.47 1365.76 L1833.44 1368.63 L1850.41 1366.01 L1867.38 1359.32 L1884.36 1016.47 L1901.33 1096.09 L1918.3 1024.82 L1935.27 1093.19 
  L1952.24 1079.34 L1969.21 1117.09 L1986.18 1143 L2003.15 1181.16 L2020.12 1261.94 L2037.09 1253.88 L2054.07 1218.55 L2071.04 1287.89 L2088.01 1288.57 L2104.98 1286.18 
  L2121.95 1342.43 L2138.92 1331.29 L2155.89 1330.8 L2172.86 1327.91 L2189.83 1331.86 L2206.81 1352.98 L2223.78 1347.67 L2240.75 1354.43 L2257.72 1362.31 L2274.69 1361.1 
  L2291.66 1371.73 L2291.66 1311.55 L2274.69 1300.42 L2257.72 1296.3 L2240.75 1296.43 L2223.78 1288.78 L2206.81 1278.58 L2189.83 1268.93 L2172.86 1266.64 L2155.89 1257.66 
  L2138.92 1236.86 L2121.95 1228.97 L2104.98 1213.66 L2088.01 1205.78 L2071.04 1180.99 L2054.07 1172.4 L2037.09 1158.15 L2020.12 1133.04 L2003.15 1120.16 L1986.18 1098.05 
  L1969.21 1077.98 L1952.24 1047.59 L1935.27 1025.42 L1918.3 981.025 L1901.33 957.057 L1884.36 921.17 L1867.38 1301.05 L1850.41 1297.47 L1833.44 1289.31 L1816.47 1292.27 
  L1799.5 1283.33 L1782.53 1271.8 L1765.56 1263.88 L1748.59 1252.74 L1731.62 1242.45 L1714.65 1230.78 L1697.67 1218.38 L1680.7 1208.13 L1663.73 1195.01 L1646.76 1178.82 
  L1629.79 1152.52 L1612.82 1136.54 L1595.85 1121.63 L1578.88 1094.37 L1561.91 1075.15 L1544.94 1055.26 L1527.96 1014.85 L1510.99 989.792 L1494.02 960.209 L1477.05 924.628 
  L1460.08 1304.84 L1443.11 1295.88 L1426.14 1294.55 L1409.17 1285.5 L1392.2 1280.57 L1375.22 1270.78 L1358.25 1262.13 L1341.28 1251.19 L1324.31 1244.57 L1307.34 1229.03 
  L1290.37 1216.74 L1273.4 1209.87 L1256.43 1197.97 L1239.46 1178.7 L1222.49 1161.95 L1205.51 1143.39 L1188.54 1117.46 L1171.57 1102.27 L1154.6 1075.89 L1137.63 1048.84 
  L1120.66 1034.06 L1103.69 993.632 L1086.72 956.943 L1069.75 927.683 L1052.78 1312.3 L1035.8 1303.99 L1018.83 1297.82 L1001.86 1289.86 L984.891 1283.52 L967.92 1273.43 
  L950.949 1272.25 L933.978 1262.95 L917.007 1245.31 L900.036 1238.03 L883.065 1227.48 L866.094 1213.54 L849.123 1201.62 L832.152 1187.56 L815.181 1168.25 L798.21 1157.87 
  L781.239 1140.9 L764.268 1122.29 L747.297 1091.88 L730.326 1083.34 L713.355 1044.54 L696.384 1019.69 L679.413 990.765 L662.442 973.343 L645.471 1327.36 L628.5 1321.29 
  L611.529 1316.36 L594.558 1312.9 L577.587 1306.09 L560.616 1296.33 L543.645 1294.08 L526.674 1288.28 L509.703 1275.75 L492.732 1268.09 L475.761 1258.23 L458.789 1249.62 
  L441.818 1236.24 L424.847 1229.49 L407.876 1212.69 L390.905 1200.61 L373.934 1187.55 L356.963 1169.67 L339.992 1156.98 L323.021 1141.14 L306.05 1130.65 L289.079 1108.04 
  L272.108 1088.33 L255.137 1061.43  Z
  " fill="#0000ff" fill-rule="evenodd" fill-opacity="0.2"/>
<polyline clip-path="url(#clip5402)" style="stroke:#e26f46; stroke-width:0; stroke-opacity:1; fill:none" points="
  255.137,1147.34 272.108,1138.89 289.079,1177.57 306.05,1228.62 323.021,1204.9 339.992,1218.26 356.963,1255.72 373.934,1235.88 390.905,1267.87 407.876,1253.58 
  424.847,1279.81 441.818,1269.59 458.789,1291.66 475.761,1293.04 492.732,1324.99 509.703,1316.13 526.674,1331.05 543.645,1339.36 560.616,1341.27 577.587,1348.89 
  594.558,1351.42 611.529,1358.95 628.5,1359.49 645.471,1357.71 662.442,1039.73 679.413,1042.98 696.384,1147.65 713.355,1113.96 730.326,1144.65 747.297,1142.47 
  764.268,1187.85 781.239,1221.34 798.21,1192 815.181,1247.41 832.152,1246.4 849.123,1262.03 866.094,1269.97 883.065,1295.36 900.036,1299.76 917.007,1330.17 
  933.978,1315.06 950.949,1332.28 967.92,1344.46 984.891,1348.39 1001.86,1360.22 1018.83,1368.76 1035.8,1373.14 1052.78,1371.75 1069.75,959.257 1086.72,1046.68 
  1103.69,1123.58 1120.66,1024.69 1137.63,1116.3 1154.6,1188.94 1171.57,1185.91 1188.54,1179.98 1205.51,1176.1 1222.49,1230.4 1239.46,1255.26 1256.43,1305.96 
  1273.4,1298.65 1290.37,1297.1 1307.34,1327.46 1324.31,1323.89 1341.28,1334.37 1358.25,1351.02 1375.22,1338.33 1392.2,1341.39 1409.17,1342.92 1426.14,1361.44 
  1443.11,1360.64 1460.08,1371.76 1477.05,1042.07 1494.02,1125.04 1510.99,1025.74 1527.96,1131.23 1544.94,1070.46 1561.91,1147.32 1578.88,1196.98 1595.85,1208 
  1612.82,1211.67 1629.79,1201.38 1646.76,1254.66 1663.73,1266.32 1680.7,1310.56 1697.67,1262.82 1714.65,1316.57 1731.62,1324.99 1748.59,1324.84 1765.56,1313.79 
  1782.53,1328.72 1799.5,1341.16 1816.47,1365.76 1833.44,1368.63 1850.41,1366.01 1867.38,1359.32 1884.36,1016.47 1901.33,1096.09 1918.3,1024.82 1935.27,1093.19 
  1952.24,1079.34 1969.21,1117.09 1986.18,1143 2003.15,1181.16 2020.12,1261.94 2037.09,1253.88 2054.07,1218.55 2071.04,1287.89 2088.01,1288.57 2104.98,1286.18 
  2121.95,1342.43 2138.92,1331.29 2155.89,1330.8 2172.86,1327.91 2189.83,1331.86 2206.81,1352.98 2223.78,1347.67 2240.75,1354.43 2257.72,1362.31 2274.69,1361.1 
  2291.66,1371.73 
  "/>
<path clip-path="url(#clip5402)" d="
M255.137 1147.34 L272.108 1138.89 L289.079 1177.57 L306.05 1228.62 L323.021 1204.9 L339.992 1218.26 L356.963 1255.72 L373.934 1235.88 L390.905 1267.87 L407.876 1253.58 
  L424.847 1279.81 L441.818 1269.59 L458.789 1291.66 L475.761 1293.04 L492.732 1324.99 L509.703 1316.13 L526.674 1331.05 L543.645 1339.36 L560.616 1341.27 L577.587 1348.89 
  L594.558 1351.42 L611.529 1358.95 L628.5 1359.49 L645.471 1357.71 L662.442 1039.73 L679.413 1042.98 L696.384 1147.65 L713.355 1113.96 L730.326 1144.65 L747.297 1142.47 
  L764.268 1187.85 L781.239 1221.34 L798.21 1192 L815.181 1247.41 L832.152 1246.4 L849.123 1262.03 L866.094 1269.97 L883.065 1295.36 L900.036 1299.76 L917.007 1330.17 
  L933.978 1315.06 L950.949 1332.28 L967.92 1344.46 L984.891 1348.39 L1001.86 1360.22 L1018.83 1368.76 L1035.8 1373.14 L1052.78 1371.75 L1069.75 959.257 L1086.72 1046.68 
  L1103.69 1123.58 L1120.66 1024.69 L1137.63 1116.3 L1154.6 1188.94 L1171.57 1185.91 L1188.54 1179.98 L1205.51 1176.1 L1222.49 1230.4 L1239.46 1255.26 L1256.43 1305.96 
  L1273.4 1298.65 L1290.37 1297.1 L1307.34 1327.46 L1324.31 1323.89 L1341.28 1334.37 L1358.25 1351.02 L1375.22 1338.33 L1392.2 1341.39 L1409.17 1342.92 L1426.14 1361.44 
  L1443.11 1360.64 L1460.08 1371.76 L1477.05 1042.07 L1494.02 1125.04 L1510.99 1025.74 L1527.96 1131.23 L1544.94 1070.46 L1561.91 1147.32 L1578.88 1196.98 L1595.85 1208 
  L1612.82 1211.67 L1629.79 1201.38 L1646.76 1254.66 L1663.73 1266.32 L1680.7 1310.56 L1697.67 1262.82 L1714.65 1316.57 L1731.62 1324.99 L1748.59 1324.84 L1765.56 1313.79 
  L1782.53 1328.72 L1799.5 1341.16 L1816.47 1365.76 L1833.44 1368.63 L1850.41 1366.01 L1867.38 1359.32 L1884.36 1016.47 L1901.33 1096.09 L1918.3 1024.82 L1935.27 1093.19 
  L1952.24 1079.34 L1969.21 1117.09 L1986.18 1143 L2003.15 1181.16 L2020.12 1261.94 L2037.09 1253.88 L2054.07 1218.55 L2071.04 1287.89 L2088.01 1288.57 L2104.98 1286.18 
  L2121.95 1342.43 L2138.92 1331.29 L2155.89 1330.8 L2172.86 1327.91 L2189.83 1331.86 L2206.81 1352.98 L2223.78 1347.67 L2240.75 1354.43 L2257.72 1362.31 L2274.69 1361.1 
  L2291.66 1371.73 L2291.66 1388.71 L2274.69 1387.64 L2257.72 1385.41 L2240.75 1383.16 L2223.78 1381.1 L2206.81 1378.52 L2189.83 1374.19 L2172.86 1371.94 L2155.89 1364.89 
  L2138.92 1357.69 L2121.95 1350.62 L2104.98 1343.9 L2088.01 1334.42 L2071.04 1325.02 L2054.07 1316.46 L2037.09 1300.84 L2020.12 1282.51 L2003.15 1272.49 L1986.18 1264.8 
  L1969.21 1229.95 L1952.24 1221.72 L1935.27 1204.28 L1918.3 1194.27 L1901.33 1175.46 L1884.36 1150.89 L1867.38 1387.32 L1850.41 1384.43 L1833.44 1382.55 L1816.47 1378.61 
  L1799.5 1377.3 L1782.53 1374.04 L1765.56 1368.62 L1748.59 1366.21 L1731.62 1359.23 L1714.65 1352.16 L1697.67 1343.61 L1680.7 1341.58 L1663.73 1327.48 L1646.76 1311.61 
  L1629.79 1301.97 L1612.82 1286.51 L1595.85 1274.7 L1578.88 1254.57 L1561.91 1234.78 L1544.94 1224.13 L1527.96 1212.37 L1510.99 1183.88 L1494.02 1168.56 L1477.05 1160.32 
  L1460.08 1386.78 L1443.11 1385.51 L1426.14 1383.35 L1409.17 1381.54 L1392.2 1379.9 L1375.22 1372.37 L1358.25 1367.62 L1341.28 1365.43 L1324.31 1356 L1307.34 1352.76 
  L1290.37 1347.95 L1273.4 1335.28 L1256.43 1332 L1239.46 1316.91 L1222.49 1302.06 L1205.51 1291.46 L1188.54 1270.14 L1171.57 1254.84 L1154.6 1244.95 L1137.63 1225.13 
  L1120.66 1208.95 L1103.69 1190.93 L1086.72 1171.65 L1069.75 1151.78 L1052.78 1386.81 L1035.8 1385.76 L1018.83 1381.52 L1001.86 1381.16 L984.891 1376.47 L967.92 1374.75 
  L950.949 1368.64 L933.978 1365.55 L917.007 1356.44 L900.036 1354.58 L883.065 1345.42 L866.094 1337.41 L849.123 1327.71 L832.152 1318.37 L815.181 1301.07 L798.21 1288.04 
  L781.239 1275.13 L764.268 1268.08 L747.297 1250.87 L730.326 1231.2 L713.355 1205.59 L696.384 1198.61 L679.413 1182.61 L662.442 1185.45 L645.471 1388.54 L628.5 1385.16 
  L611.529 1383.61 L594.558 1381.31 L577.587 1378.23 L560.616 1373.47 L543.645 1368.98 L526.674 1368.66 L509.703 1357.36 L492.732 1355.02 L475.761 1346.73 L458.789 1339.06 
  L441.818 1334.02 L424.847 1323.32 L407.876 1310.75 L390.905 1300.39 L373.934 1290.74 L356.963 1281.53 L339.992 1269.51 L323.021 1270.12 L306.05 1258.26 L289.079 1253.72 
  L272.108 1252.67 L255.137 1241.74  Z
  " fill="#0000ff" fill-rule="evenodd" fill-opacity="0.2"/>
<polyline clip-path="url(#clip5402)" style="stroke:#3da44d; stroke-width:0; stroke-opacity:1; fill:none" points="
  255.137,1147.34 272.108,1138.89 289.079,1177.57 306.05,1228.62 323.021,1204.9 339.992,1218.26 356.963,1255.72 373.934,1235.88 390.905,1267.87 407.876,1253.58 
  424.847,1279.81 441.818,1269.59 458.789,1291.66 475.761,1293.04 492.732,1324.99 509.703,1316.13 526.674,1331.05 543.645,1339.36 560.616,1341.27 577.587,1348.89 
  594.558,1351.42 611.529,1358.95 628.5,1359.49 645.471,1357.71 662.442,1039.73 679.413,1042.98 696.384,1147.65 713.355,1113.96 730.326,1144.65 747.297,1142.47 
  764.268,1187.85 781.239,1221.34 798.21,1192 815.181,1247.41 832.152,1246.4 849.123,1262.03 866.094,1269.97 883.065,1295.36 900.036,1299.76 917.007,1330.17 
  933.978,1315.06 950.949,1332.28 967.92,1344.46 984.891,1348.39 1001.86,1360.22 1018.83,1368.76 1035.8,1373.14 1052.78,1371.75 1069.75,959.257 1086.72,1046.68 
  1103.69,1123.58 1120.66,1024.69 1137.63,1116.3 1154.6,1188.94 1171.57,1185.91 1188.54,1179.98 1205.51,1176.1 1222.49,1230.4 1239.46,1255.26 1256.43,1305.96 
  1273.4,1298.65 1290.37,1297.1 1307.34,1327.46 1324.31,1323.89 1341.28,1334.37 1358.25,1351.02 1375.22,1338.33 1392.2,1341.39 1409.17,1342.92 1426.14,1361.44 
  1443.11,1360.64 1460.08,1371.76 1477.05,1042.07 1494.02,1125.04 1510.99,1025.74 1527.96,1131.23 1544.94,1070.46 1561.91,1147.32 1578.88,1196.98 1595.85,1208 
  1612.82,1211.67 1629.79,1201.38 1646.76,1254.66 1663.73,1266.32 1680.7,1310.56 1697.67,1262.82 1714.65,1316.57 1731.62,1324.99 1748.59,1324.84 1765.56,1313.79 
  1782.53,1328.72 1799.5,1341.16 1816.47,1365.76 1833.44,1368.63 1850.41,1366.01 1867.38,1359.32 1884.36,1016.47 1901.33,1096.09 1918.3,1024.82 1935.27,1093.19 
  1952.24,1079.34 1969.21,1117.09 1986.18,1143 2003.15,1181.16 2020.12,1261.94 2037.09,1253.88 2054.07,1218.55 2071.04,1287.89 2088.01,1288.57 2104.98,1286.18 
  2121.95,1342.43 2138.92,1331.29 2155.89,1330.8 2172.86,1327.91 2189.83,1331.86 2206.81,1352.98 2223.78,1347.67 2240.75,1354.43 2257.72,1362.31 2274.69,1361.1 
  2291.66,1371.73 
  "/>
<polyline clip-path="url(#clip5402)" style="stroke:#ff0000; stroke-width:8; stroke-opacity:1; fill:none" points="
  255.137,955.992 272.108,1078.56 289.079,1063.89 306.05,1094.39 323.021,1101.15 339.992,1116.59 356.963,1149.72 373.934,1178.7 390.905,1209.72 407.876,1217.18 
  424.847,1233.1 441.818,1207.13 458.789,1256.73 475.761,1250.07 492.732,1274.31 509.703,1257.28 526.674,1273.96 543.645,1298.98 560.616,1296.56 577.587,1268.25 
  594.558,1258.92 611.529,1269.54 628.5,1292.46 645.471,1265.4 662.442,936.3 679.413,954.874 696.384,983.34 713.355,1054.55 730.326,1029.37 747.297,1046.11 
  764.268,1092.31 781.239,1115.12 798.21,1086.44 815.181,1124.96 832.152,1117.74 849.123,1159.31 866.094,1182.7 883.065,1200.91 900.036,1188.43 917.007,1148.12 
  933.978,1192.8 950.949,1197.72 967.92,1256.51 984.891,1200.2 1001.86,1263.1 1018.83,1216.13 1035.8,1210.23 1052.78,1246.63 1069.75,896.606 1086.72,916.338 
  1103.69,1056 1120.66,938.325 1137.63,1043.1 1154.6,1048.67 1171.57,1075.51 1188.54,1082.39 1205.51,1091.41 1222.49,1098.51 1239.46,1153.81 1256.43,1116.13 
  1273.4,1118.57 1290.37,1217.61 1307.34,1141.91 1324.31,1138.91 1341.28,1149.91 1358.25,1111.7 1375.22,1195.54 1392.2,1162.11 1409.17,1289.8 1426.14,1234.21 
  1443.11,1204.37 1460.08,1226.52 1477.05,922.742 1494.02,943.174 1510.99,943.646 1527.96,1058.03 1544.94,968.27 1561.91,955.334 1578.88,1026.58 1595.85,1057.95 
  1612.82,1012.91 1629.79,1025.45 1646.76,1120.3 1663.73,1074.89 1680.7,1115.57 1697.67,1040.43 1714.65,1147.05 1731.62,1148.62 1748.59,1150.31 1765.56,1183.56 
  1782.53,1231.28 1799.5,1120.16 1816.47,1204.77 1833.44,1159.93 1850.41,1176.01 1867.38,1205.27 1884.36,848.994 1901.33,920.684 1918.3,924.033 1935.27,1009.07 
  1952.24,1005.66 1969.21,1017.86 1986.18,1000.46 2003.15,1097.77 2020.12,1127.14 2037.09,1121.56 2054.07,1071.85 2071.04,1098.61 2088.01,1061.43 2104.98,1109.69 
  2121.95,1128.63 2138.92,1134.67 2155.89,1173.28 2172.86,1262.09 2189.83,1164.87 2206.81,1160.17 2223.78,1204.28 2240.75,1202.62 2257.72,1167.69 2274.69,1184.17 
  2291.66,1228.42 
  "/>
<path clip-path="url(#clip5402)" d="
M255.137 955.992 L272.108 1078.56 L289.079 1063.89 L306.05 1094.39 L323.021 1101.15 L339.992 1116.59 L356.963 1149.72 L373.934 1178.7 L390.905 1209.72 L407.876 1217.18 
  L424.847 1233.1 L441.818 1207.13 L458.789 1256.73 L475.761 1250.07 L492.732 1274.31 L509.703 1257.28 L526.674 1273.96 L543.645 1298.98 L560.616 1296.56 L577.587 1268.25 
  L594.558 1258.92 L611.529 1269.54 L628.5 1292.46 L645.471 1265.4 L662.442 936.3 L679.413 954.874 L696.384 983.34 L713.355 1054.55 L730.326 1029.37 L747.297 1046.11 
  L764.268 1092.31 L781.239 1115.12 L798.21 1086.44 L815.181 1124.96 L832.152 1117.74 L849.123 1159.31 L866.094 1182.7 L883.065 1200.91 L900.036 1188.43 L917.007 1148.12 
  L933.978 1192.8 L950.949 1197.72 L967.92 1256.51 L984.891 1200.2 L1001.86 1263.1 L1018.83 1216.13 L1035.8 1210.23 L1052.78 1246.63 L1069.75 896.606 L1086.72 916.338 
  L1103.69 1056 L1120.66 938.325 L1137.63 1043.1 L1154.6 1048.67 L1171.57 1075.51 L1188.54 1082.39 L1205.51 1091.41 L1222.49 1098.51 L1239.46 1153.81 L1256.43 1116.13 
  L1273.4 1118.57 L1290.37 1217.61 L1307.34 1141.91 L1324.31 1138.91 L1341.28 1149.91 L1358.25 1111.7 L1375.22 1195.54 L1392.2 1162.11 L1409.17 1289.8 L1426.14 1234.21 
  L1443.11 1204.37 L1460.08 1226.52 L1477.05 922.742 L1494.02 943.174 L1510.99 943.646 L1527.96 1058.03 L1544.94 968.27 L1561.91 955.334 L1578.88 1026.58 L1595.85 1057.95 
  L1612.82 1012.91 L1629.79 1025.45 L1646.76 1120.3 L1663.73 1074.89 L1680.7 1115.57 L1697.67 1040.43 L1714.65 1147.05 L1731.62 1148.62 L1748.59 1150.31 L1765.56 1183.56 
  L1782.53 1231.28 L1799.5 1120.16 L1816.47 1204.77 L1833.44 1159.93 L1850.41 1176.01 L1867.38 1205.27 L1884.36 848.994 L1901.33 920.684 L1918.3 924.033 L1935.27 1009.07 
  L1952.24 1005.66 L1969.21 1017.86 L1986.18 1000.46 L2003.15 1097.77 L2020.12 1127.14 L2037.09 1121.56 L2054.07 1071.85 L2071.04 1098.61 L2088.01 1061.43 L2104.98 1109.69 
  L2121.95 1128.63 L2138.92 1134.67 L2155.89 1173.28 L2172.86 1262.09 L2189.83 1164.87 L2206.81 1160.17 L2223.78 1204.28 L2240.75 1202.62 L2257.72 1167.69 L2274.69 1184.17 
  L2291.66 1228.42 L2291.66 1155.92 L2274.69 1140.48 L2257.72 1129.43 L2240.75 1132.35 L2223.78 1123.1 L2206.81 1108.44 L2189.83 1096.57 L2172.86 1081.59 L2155.89 1075.09 
  L2138.92 1058.18 L2121.95 1047.05 L2104.98 1044.33 L2088.01 1012.62 L2071.04 988.835 L2054.07 979.036 L2037.09 970.295 L2020.12 941.068 L2003.15 909.596 L1986.18 891.283 
  L1969.21 869.903 L1952.24 842.456 L1935.27 791.933 L1918.3 764.493 L1901.33 709.259 L1884.36 671.364 L1867.38 1157.48 L1850.41 1150.46 L1833.44 1140.62 L1816.47 1124.14 
  L1799.5 1122.43 L1782.53 1101.75 L1765.56 1093.22 L1748.59 1085.12 L1731.62 1062.92 L1714.65 1052.01 L1697.67 1042.52 L1680.7 1021.48 L1663.73 1003.69 L1646.76 1004.76 
  L1629.79 976.103 L1612.82 953.914 L1595.85 940.717 L1578.88 897.653 L1561.91 876.075 L1544.94 840.673 L1527.96 821.371 L1510.99 754.478 L1494.02 740.242 L1477.05 693.348 
  L1460.08 1162.03 L1443.11 1151 L1426.14 1147.86 L1409.17 1150.65 L1392.2 1138.04 L1375.22 1112.93 L1358.25 1104.75 L1341.28 1099.34 L1324.31 1079.21 L1307.34 1077.11 
  L1290.37 1052.79 L1273.4 1051.45 L1256.43 1033.59 L1239.46 1014.17 L1222.49 1007.91 L1205.51 965.46 L1188.54 951.073 L1171.57 922.426 L1154.6 882.582 L1137.63 865.226 
  L1120.66 835.884 L1103.69 799.114 L1086.72 753.275 L1069.75 726.259 L1052.78 1197.85 L1035.8 1185.57 L1018.83 1179.14 L1001.86 1171.35 L984.891 1159.75 L967.92 1148.56 
  L950.949 1139.09 L933.978 1127.68 L917.007 1117.47 L900.036 1105.98 L883.065 1094.9 L866.094 1083.08 L849.123 1069.2 L832.152 1040.16 L815.181 1025.81 L798.21 1008.41 
  L781.239 998.623 L764.268 971.377 L747.297 950.612 L730.326 907.359 L713.355 889.439 L696.384 851.563 L679.413 813.938 L662.442 782.813 L645.471 1253.12 L628.5 1246.19 
  L611.529 1242.57 L594.558 1239.81 L577.587 1230.27 L560.616 1215.92 L543.645 1212.6 L526.674 1206.35 L509.703 1194.36 L492.732 1189.84 L475.761 1179.24 L458.789 1155.07 
  L441.818 1152.09 L424.847 1138.88 L407.876 1121.28 L390.905 1104.04 L373.934 1088.02 L356.963 1075.45 L339.992 1062.62 L323.021 1031.35 L306.05 1003.37 L289.079 975.798 
  L272.108 947.558 L255.137 912.68  Z
  " fill="#0000ff" fill-rule="evenodd" fill-opacity="0.2"/>
<polyline clip-path="url(#clip5402)" style="stroke:#ac8d18; stroke-width:0; stroke-opacity:1; fill:none" points="
  255.137,955.992 272.108,1078.56 289.079,1063.89 306.05,1094.39 323.021,1101.15 339.992,1116.59 356.963,1149.72 373.934,1178.7 390.905,1209.72 407.876,1217.18 
  424.847,1233.1 441.818,1207.13 458.789,1256.73 475.761,1250.07 492.732,1274.31 509.703,1257.28 526.674,1273.96 543.645,1298.98 560.616,1296.56 577.587,1268.25 
  594.558,1258.92 611.529,1269.54 628.5,1292.46 645.471,1265.4 662.442,936.3 679.413,954.874 696.384,983.34 713.355,1054.55 730.326,1029.37 747.297,1046.11 
  764.268,1092.31 781.239,1115.12 798.21,1086.44 815.181,1124.96 832.152,1117.74 849.123,1159.31 866.094,1182.7 883.065,1200.91 900.036,1188.43 917.007,1148.12 
  933.978,1192.8 950.949,1197.72 967.92,1256.51 984.891,1200.2 1001.86,1263.1 1018.83,1216.13 1035.8,1210.23 1052.78,1246.63 1069.75,896.606 1086.72,916.338 
  1103.69,1056 1120.66,938.325 1137.63,1043.1 1154.6,1048.67 1171.57,1075.51 1188.54,1082.39 1205.51,1091.41 1222.49,1098.51 1239.46,1153.81 1256.43,1116.13 
  1273.4,1118.57 1290.37,1217.61 1307.34,1141.91 1324.31,1138.91 1341.28,1149.91 1358.25,1111.7 1375.22,1195.54 1392.2,1162.11 1409.17,1289.8 1426.14,1234.21 
  1443.11,1204.37 1460.08,1226.52 1477.05,922.742 1494.02,943.174 1510.99,943.646 1527.96,1058.03 1544.94,968.27 1561.91,955.334 1578.88,1026.58 1595.85,1057.95 
  1612.82,1012.91 1629.79,1025.45 1646.76,1120.3 1663.73,1074.89 1680.7,1115.57 1697.67,1040.43 1714.65,1147.05 1731.62,1148.62 1748.59,1150.31 1765.56,1183.56 
  1782.53,1231.28 1799.5,1120.16 1816.47,1204.77 1833.44,1159.93 1850.41,1176.01 1867.38,1205.27 1884.36,848.994 1901.33,920.684 1918.3,924.033 1935.27,1009.07 
  1952.24,1005.66 1969.21,1017.86 1986.18,1000.46 2003.15,1097.77 2020.12,1127.14 2037.09,1121.56 2054.07,1071.85 2071.04,1098.61 2088.01,1061.43 2104.98,1109.69 
  2121.95,1128.63 2138.92,1134.67 2155.89,1173.28 2172.86,1262.09 2189.83,1164.87 2206.81,1160.17 2223.78,1204.28 2240.75,1202.62 2257.72,1167.69 2274.69,1184.17 
  2291.66,1228.42 
  "/>
<path clip-path="url(#clip5402)" d="
M255.137 955.992 L272.108 1078.56 L289.079 1063.89 L306.05 1094.39 L323.021 1101.15 L339.992 1116.59 L356.963 1149.72 L373.934 1178.7 L390.905 1209.72 L407.876 1217.18 
  L424.847 1233.1 L441.818 1207.13 L458.789 1256.73 L475.761 1250.07 L492.732 1274.31 L509.703 1257.28 L526.674 1273.96 L543.645 1298.98 L560.616 1296.56 L577.587 1268.25 
  L594.558 1258.92 L611.529 1269.54 L628.5 1292.46 L645.471 1265.4 L662.442 936.3 L679.413 954.874 L696.384 983.34 L713.355 1054.55 L730.326 1029.37 L747.297 1046.11 
  L764.268 1092.31 L781.239 1115.12 L798.21 1086.44 L815.181 1124.96 L832.152 1117.74 L849.123 1159.31 L866.094 1182.7 L883.065 1200.91 L900.036 1188.43 L917.007 1148.12 
  L933.978 1192.8 L950.949 1197.72 L967.92 1256.51 L984.891 1200.2 L1001.86 1263.1 L1018.83 1216.13 L1035.8 1210.23 L1052.78 1246.63 L1069.75 896.606 L1086.72 916.338 
  L1103.69 1056 L1120.66 938.325 L1137.63 1043.1 L1154.6 1048.67 L1171.57 1075.51 L1188.54 1082.39 L1205.51 1091.41 L1222.49 1098.51 L1239.46 1153.81 L1256.43 1116.13 
  L1273.4 1118.57 L1290.37 1217.61 L1307.34 1141.91 L1324.31 1138.91 L1341.28 1149.91 L1358.25 1111.7 L1375.22 1195.54 L1392.2 1162.11 L1409.17 1289.8 L1426.14 1234.21 
  L1443.11 1204.37 L1460.08 1226.52 L1477.05 922.742 L1494.02 943.174 L1510.99 943.646 L1527.96 1058.03 L1544.94 968.27 L1561.91 955.334 L1578.88 1026.58 L1595.85 1057.95 
  L1612.82 1012.91 L1629.79 1025.45 L1646.76 1120.3 L1663.73 1074.89 L1680.7 1115.57 L1697.67 1040.43 L1714.65 1147.05 L1731.62 1148.62 L1748.59 1150.31 L1765.56 1183.56 
  L1782.53 1231.28 L1799.5 1120.16 L1816.47 1204.77 L1833.44 1159.93 L1850.41 1176.01 L1867.38 1205.27 L1884.36 848.994 L1901.33 920.684 L1918.3 924.033 L1935.27 1009.07 
  L1952.24 1005.66 L1969.21 1017.86 L1986.18 1000.46 L2003.15 1097.77 L2020.12 1127.14 L2037.09 1121.56 L2054.07 1071.85 L2071.04 1098.61 L2088.01 1061.43 L2104.98 1109.69 
  L2121.95 1128.63 L2138.92 1134.67 L2155.89 1173.28 L2172.86 1262.09 L2189.83 1164.87 L2206.81 1160.17 L2223.78 1204.28 L2240.75 1202.62 L2257.72 1167.69 L2274.69 1184.17 
  L2291.66 1228.42 L2291.66 1334.71 L2274.69 1328.6 L2257.72 1326.03 L2240.75 1316.55 L2223.78 1306.16 L2206.81 1302.9 L2189.83 1294.97 L2172.86 1282.94 L2155.89 1276.37 
  L2138.92 1263.55 L2121.95 1255.45 L2104.98 1241.56 L2088.01 1221.81 L2071.04 1216.54 L2054.07 1192.82 L2037.09 1182.64 L2020.12 1170.91 L2003.15 1143.02 L1986.18 1132.5 
  L1969.21 1104.5 L1952.24 1083.01 L1935.27 1064.2 L1918.3 1024.26 L1901.33 1000.68 L1884.36 967.324 L1867.38 1323.38 L1850.41 1320.95 L1833.44 1319.31 L1816.47 1308.64 
  L1799.5 1296.94 L1782.53 1295.42 L1765.56 1280.49 L1748.59 1270.91 L1731.62 1261.74 L1714.65 1251.96 L1697.67 1243.41 L1680.7 1231.09 L1663.73 1217.53 L1646.76 1200.27 
  L1629.79 1187.75 L1612.82 1167.35 L1595.85 1149.06 L1578.88 1134.08 L1561.91 1108.58 L1544.94 1083.23 L1527.96 1049.53 L1510.99 1021.83 L1494.02 997.118 L1477.05 973.749 
  L1460.08 1327.3 L1443.11 1320.62 L1426.14 1315.14 L1409.17 1304.83 L1392.2 1300.39 L1375.22 1291.75 L1358.25 1284.59 L1341.28 1274.79 L1324.31 1263.74 L1307.34 1255.35 
  L1290.37 1245.39 L1273.4 1233.88 L1256.43 1220.29 L1239.46 1205.5 L1222.49 1184.6 L1205.51 1172.76 L1188.54 1150.55 L1171.57 1134.56 L1154.6 1108.53 L1137.63 1088.25 
  L1120.66 1071.16 L1103.69 1032.21 L1086.72 1023.13 L1069.75 991.107 L1052.78 1329.17 L1035.8 1325.74 L1018.83 1316.46 L1001.86 1311.79 L984.891 1308.79 L967.92 1303.49 
  L950.949 1292.33 L933.978 1278.16 L917.007 1271.62 L900.036 1257.31 L883.065 1249.91 L866.094 1236.19 L849.123 1223.78 L832.152 1217.66 L815.181 1191.94 L798.21 1186.24 
  L781.239 1163.53 L764.268 1146.38 L747.297 1125.06 L730.326 1117.57 L713.355 1090.77 L696.384 1069.46 L679.413 1043.82 L662.442 1028.75 L645.471 1338.26 L628.5 1332.01 
  L611.529 1329.61 L594.558 1323.74 L577.587 1319.22 L560.616 1313.52 L543.645 1303.59 L526.674 1297.57 L509.703 1295.46 L492.732 1283.28 L475.761 1276.23 L458.789 1266.22 
  L441.818 1255.72 L424.847 1244.5 L407.876 1239.72 L390.905 1226.28 L373.934 1215.72 L356.963 1206.24 L339.992 1190.08 L323.021 1182.55 L306.05 1164.93 L289.079 1150.79 
  L272.108 1144.69 L255.137 1122.4  Z
  " fill="#0000ff" fill-rule="evenodd" fill-opacity="0.2"/>
<polyline clip-path="url(#clip5402)" style="stroke:#00a9ad; stroke-width:0; stroke-opacity:1; fill:none" points="
  255.137,955.992 272.108,1078.56 289.079,1063.89 306.05,1094.39 323.021,1101.15 339.992,1116.59 356.963,1149.72 373.934,1178.7 390.905,1209.72 407.876,1217.18 
  424.847,1233.1 441.818,1207.13 458.789,1256.73 475.761,1250.07 492.732,1274.31 509.703,1257.28 526.674,1273.96 543.645,1298.98 560.616,1296.56 577.587,1268.25 
  594.558,1258.92 611.529,1269.54 628.5,1292.46 645.471,1265.4 662.442,936.3 679.413,954.874 696.384,983.34 713.355,1054.55 730.326,1029.37 747.297,1046.11 
  764.268,1092.31 781.239,1115.12 798.21,1086.44 815.181,1124.96 832.152,1117.74 849.123,1159.31 866.094,1182.7 883.065,1200.91 900.036,1188.43 917.007,1148.12 
  933.978,1192.8 950.949,1197.72 967.92,1256.51 984.891,1200.2 1001.86,1263.1 1018.83,1216.13 1035.8,1210.23 1052.78,1246.63 1069.75,896.606 1086.72,916.338 
  1103.69,1056 1120.66,938.325 1137.63,1043.1 1154.6,1048.67 1171.57,1075.51 1188.54,1082.39 1205.51,1091.41 1222.49,1098.51 1239.46,1153.81 1256.43,1116.13 
  1273.4,1118.57 1290.37,1217.61 1307.34,1141.91 1324.31,1138.91 1341.28,1149.91 1358.25,1111.7 1375.22,1195.54 1392.2,1162.11 1409.17,1289.8 1426.14,1234.21 
  1443.11,1204.37 1460.08,1226.52 1477.05,922.742 1494.02,943.174 1510.99,943.646 1527.96,1058.03 1544.94,968.27 1561.91,955.334 1578.88,1026.58 1595.85,1057.95 
  1612.82,1012.91 1629.79,1025.45 1646.76,1120.3 1663.73,1074.89 1680.7,1115.57 1697.67,1040.43 1714.65,1147.05 1731.62,1148.62 1748.59,1150.31 1765.56,1183.56 
  1782.53,1231.28 1799.5,1120.16 1816.47,1204.77 1833.44,1159.93 1850.41,1176.01 1867.38,1205.27 1884.36,848.994 1901.33,920.684 1918.3,924.033 1935.27,1009.07 
  1952.24,1005.66 1969.21,1017.86 1986.18,1000.46 2003.15,1097.77 2020.12,1127.14 2037.09,1121.56 2054.07,1071.85 2071.04,1098.61 2088.01,1061.43 2104.98,1109.69 
  2121.95,1128.63 2138.92,1134.67 2155.89,1173.28 2172.86,1262.09 2189.83,1164.87 2206.81,1160.17 2223.78,1204.28 2240.75,1202.62 2257.72,1167.69 2274.69,1184.17 
  2291.66,1228.42 
  "/>
<polyline clip-path="url(#clip5402)" style="stroke:#ff0000; stroke-width:8; stroke-opacity:1; fill:none" stroke-dasharray="4, 8" points="
  255.137,863.882 272.108,988.847 289.079,986.091 306.05,941.321 323.021,876.427 339.992,873.7 356.963,954.178 373.934,959.253 390.905,1100.2 407.876,993.049 
  424.847,1065.67 441.818,1036.55 458.789,1061.01 475.761,1015.5 492.732,1114.58 509.703,1076.09 526.674,1167.89 543.645,1076.62 560.616,1105.72 577.587,1144.99 
  594.558,1142.31 611.529,1117.75 628.5,1146.63 645.471,1132.19 662.442,634.036 679.413,773.033 696.384,567.428 713.355,869.504 730.326,693.12 747.297,634.273 
  764.268,819.252 781.239,857.044 798.21,825.001 815.181,806.844 832.152,736.845 849.123,807.464 866.094,793.124 883.065,1001.39 900.036,972.622 917.007,876.864 
  933.978,918.73 950.949,1021.28 967.92,895.289 984.891,1005.71 1001.86,1071.36 1018.83,1055.94 1035.8,971.541 1052.78,1045.48 1069.75,625.946 1086.72,333.61 
  1103.69,622.113 1120.66,718.16 1137.63,959.61 1154.6,735.344 1171.57,654.967 1188.54,734.419 1205.51,778.465 1222.49,613.858 1239.46,848.436 1256.43,952.882 
  1273.4,880.367 1290.37,689.737 1307.34,964.957 1324.31,852.736 1341.28,903.046 1358.25,864.749 1375.22,980.664 1392.2,903.216 1409.17,1006.44 1426.14,900.155 
  1443.11,929.86 1460.08,1010.42 1477.05,590.773 1494.02,587.576 1510.99,492.515 1527.96,728.495 1544.94,696.937 1561.91,715.301 1578.88,595.623 1595.85,695.405 
  1612.82,770.837 1629.79,752.002 1646.76,746.488 1663.73,773.723 1680.7,720.437 1697.67,770.086 1714.65,682.578 1731.62,804.694 1748.59,883.465 1765.56,829.557 
  1782.53,704.927 1799.5,802.115 1816.47,796.266 1833.44,901.513 1850.41,905.993 1867.38,1006.15 1884.36,522.901 1901.33,399.23 1918.3,578.428 1935.27,676.58 
  1952.24,445.236 1969.21,441.273 1986.18,563.602 2003.15,696.998 2020.12,639.626 2037.09,488.318 2054.07,845.978 2071.04,679.14 2088.01,946.907 2104.98,752.944 
  2121.95,765.335 2138.92,771.868 2155.89,1024.16 2172.86,731.952 2189.83,812.443 2206.81,860.697 2223.78,900.09 2240.75,943.899 2257.72,845.918 2274.69,911.059 
  2291.66,958.688 
  "/>
<path clip-path="url(#clip5402)" d="
M255.137 863.882 L272.108 988.847 L289.079 986.091 L306.05 941.321 L323.021 876.427 L339.992 873.7 L356.963 954.178 L373.934 959.253 L390.905 1100.2 L407.876 993.049 
  L424.847 1065.67 L441.818 1036.55 L458.789 1061.01 L475.761 1015.5 L492.732 1114.58 L509.703 1076.09 L526.674 1167.89 L543.645 1076.62 L560.616 1105.72 L577.587 1144.99 
  L594.558 1142.31 L611.529 1117.75 L628.5 1146.63 L645.471 1132.19 L662.442 634.036 L679.413 773.033 L696.384 567.428 L713.355 869.504 L730.326 693.12 L747.297 634.273 
  L764.268 819.252 L781.239 857.044 L798.21 825.001 L815.181 806.844 L832.152 736.845 L849.123 807.464 L866.094 793.124 L883.065 1001.39 L900.036 972.622 L917.007 876.864 
  L933.978 918.73 L950.949 1021.28 L967.92 895.289 L984.891 1005.71 L1001.86 1071.36 L1018.83 1055.94 L1035.8 971.541 L1052.78 1045.48 L1069.75 625.946 L1086.72 333.61 
  L1103.69 622.113 L1120.66 718.16 L1137.63 959.61 L1154.6 735.344 L1171.57 654.967 L1188.54 734.419 L1205.51 778.465 L1222.49 613.858 L1239.46 848.436 L1256.43 952.882 
  L1273.4 880.367 L1290.37 689.737 L1307.34 964.957 L1324.31 852.736 L1341.28 903.046 L1358.25 864.749 L1375.22 980.664 L1392.2 903.216 L1409.17 1006.44 L1426.14 900.155 
  L1443.11 929.86 L1460.08 1010.42 L1477.05 590.773 L1494.02 587.576 L1510.99 492.515 L1527.96 728.495 L1544.94 696.937 L1561.91 715.301 L1578.88 595.623 L1595.85 695.405 
  L1612.82 770.837 L1629.79 752.002 L1646.76 746.488 L1663.73 773.723 L1680.7 720.437 L1697.67 770.086 L1714.65 682.578 L1731.62 804.694 L1748.59 883.465 L1765.56 829.557 
  L1782.53 704.927 L1799.5 802.115 L1816.47 796.266 L1833.44 901.513 L1850.41 905.993 L1867.38 1006.15 L1884.36 522.901 L1901.33 399.23 L1918.3 578.428 L1935.27 676.58 
  L1952.24 445.236 L1969.21 441.273 L1986.18 563.602 L2003.15 696.998 L2020.12 639.626 L2037.09 488.318 L2054.07 845.978 L2071.04 679.14 L2088.01 946.907 L2104.98 752.944 
  L2121.95 765.335 L2138.92 771.868 L2155.89 1024.16 L2172.86 731.952 L2189.83 812.443 L2206.81 860.697 L2223.78 900.09 L2240.75 943.899 L2257.72 845.918 L2274.69 911.059 
  L2291.66 958.688 L2291.66 626.119 L2274.69 606.312 L2257.72 600.507 L2240.75 585.598 L2223.78 557.622 L2206.81 533.397 L2189.83 530.164 L2172.86 550.74 L2155.89 492.299 
  L2138.92 521.18 L2121.95 474.536 L2104.98 476.047 L2088.01 440.919 L2071.04 418.54 L2054.07 381.041 L2037.09 381.771 L2020.12 384.512 L2003.15 326.035 L1986.18 307.781 
  L1969.21 271.658 L1952.24 289.273 L1935.27 259.707 L1918.3 229.77 L1901.33 185.828 L1884.36 158.579 L1867.38 677.765 L1850.41 659.91 L1833.44 644.392 L1816.47 652.866 
  L1799.5 643.94 L1782.53 615.706 L1765.56 597.314 L1748.59 599.656 L1731.62 563.561 L1714.65 573.673 L1697.67 547.14 L1680.7 493.114 L1663.73 491.803 L1646.76 474.297 
  L1629.79 481.569 L1612.82 408.359 L1595.85 409.944 L1578.88 384.296 L1561.91 355.345 L1544.94 340.098 L1527.96 291.665 L1510.99 281.76 L1494.02 224.962 L1477.05 206.928 
  L1460.08 764.357 L1443.11 730.861 L1426.14 730.847 L1409.17 717.675 L1392.2 703.535 L1375.22 714.062 L1358.25 683.027 L1341.28 671.134 L1324.31 657.709 L1307.34 636.219 
  L1290.37 594.004 L1273.4 601.966 L1256.43 578.989 L1239.46 562.841 L1222.49 557.856 L1205.51 532.059 L1188.54 482.728 L1171.57 489.398 L1154.6 459.504 L1137.63 441.791 
  L1120.66 416.868 L1103.69 326.438 L1086.72 327.843 L1069.75 294.53 L1052.78 890.705 L1035.8 870.047 L1018.83 866.848 L1001.86 863.282 L984.891 848.64 L967.92 818.29 
  L950.949 827.318 L933.978 794.94 L917.007 794.912 L900.036 760.608 L883.065 758.329 L866.094 739.953 L849.123 738.007 L832.152 710.15 L815.181 687.743 L798.21 650.364 
  L781.239 630.786 L764.268 623.171 L747.297 588.351 L730.326 566.547 L713.355 548.713 L696.384 512.094 L679.413 440.533 L662.442 432.858 L645.471 1074.06 L628.5 1065.04 
  L611.529 1061.24 L594.558 1053.06 L577.587 1049.21 L560.616 1037.28 L543.645 1018.74 L526.674 1012.25 L509.703 1007.61 L492.732 989.99 L475.761 977.221 L458.789 968.407 
  L441.818 937.413 L424.847 934.292 L407.876 914.253 L390.905 897.588 L373.934 890.598 L356.963 869.991 L339.992 856.156 L323.021 809.259 L306.05 768.334 L289.079 738.201 
  L272.108 640.546 L255.137 549.504  Z
  " fill="#0000ff" fill-rule="evenodd" fill-opacity="0.2"/>
<polyline clip-path="url(#clip5402)" style="stroke:#c68125; stroke-width:0; stroke-opacity:1; fill:none" points="
  255.137,863.882 272.108,988.847 289.079,986.091 306.05,941.321 323.021,876.427 339.992,873.7 356.963,954.178 373.934,959.253 390.905,1100.2 407.876,993.049 
  424.847,1065.67 441.818,1036.55 458.789,1061.01 475.761,1015.5 492.732,1114.58 509.703,1076.09 526.674,1167.89 543.645,1076.62 560.616,1105.72 577.587,1144.99 
  594.558,1142.31 611.529,1117.75 628.5,1146.63 645.471,1132.19 662.442,634.036 679.413,773.033 696.384,567.428 713.355,869.504 730.326,693.12 747.297,634.273 
  764.268,819.252 781.239,857.044 798.21,825.001 815.181,806.844 832.152,736.845 849.123,807.464 866.094,793.124 883.065,1001.39 900.036,972.622 917.007,876.864 
  933.978,918.73 950.949,1021.28 967.92,895.289 984.891,1005.71 1001.86,1071.36 1018.83,1055.94 1035.8,971.541 1052.78,1045.48 1069.75,625.946 1086.72,333.61 
  1103.69,622.113 1120.66,718.16 1137.63,959.61 1154.6,735.344 1171.57,654.967 1188.54,734.419 1205.51,778.465 1222.49,613.858 1239.46,848.436 1256.43,952.882 
  1273.4,880.367 1290.37,689.737 1307.34,964.957 1324.31,852.736 1341.28,903.046 1358.25,864.749 1375.22,980.664 1392.2,903.216 1409.17,1006.44 1426.14,900.155 
  1443.11,929.86 1460.08,1010.42 1477.05,590.773 1494.02,587.576 1510.99,492.515 1527.96,728.495 1544.94,696.937 1561.91,715.301 1578.88,595.623 1595.85,695.405 
  1612.82,770.837 1629.79,752.002 1646.76,746.488 1663.73,773.723 1680.7,720.437 1697.67,770.086 1714.65,682.578 1731.62,804.694 1748.59,883.465 1765.56,829.557 
  1782.53,704.927 1799.5,802.115 1816.47,796.266 1833.44,901.513 1850.41,905.993 1867.38,1006.15 1884.36,522.901 1901.33,399.23 1918.3,578.428 1935.27,676.58 
  1952.24,445.236 1969.21,441.273 1986.18,563.602 2003.15,696.998 2020.12,639.626 2037.09,488.318 2054.07,845.978 2071.04,679.14 2088.01,946.907 2104.98,752.944 
  2121.95,765.335 2138.92,771.868 2155.89,1024.16 2172.86,731.952 2189.83,812.443 2206.81,860.697 2223.78,900.09 2240.75,943.899 2257.72,845.918 2274.69,911.059 
  2291.66,958.688 
  "/>
<path clip-path="url(#clip5402)" d="
M255.137 863.882 L272.108 988.847 L289.079 986.091 L306.05 941.321 L323.021 876.427 L339.992 873.7 L356.963 954.178 L373.934 959.253 L390.905 1100.2 L407.876 993.049 
  L424.847 1065.67 L441.818 1036.55 L458.789 1061.01 L475.761 1015.5 L492.732 1114.58 L509.703 1076.09 L526.674 1167.89 L543.645 1076.62 L560.616 1105.72 L577.587 1144.99 
  L594.558 1142.31 L611.529 1117.75 L628.5 1146.63 L645.471 1132.19 L662.442 634.036 L679.413 773.033 L696.384 567.428 L713.355 869.504 L730.326 693.12 L747.297 634.273 
  L764.268 819.252 L781.239 857.044 L798.21 825.001 L815.181 806.844 L832.152 736.845 L849.123 807.464 L866.094 793.124 L883.065 1001.39 L900.036 972.622 L917.007 876.864 
  L933.978 918.73 L950.949 1021.28 L967.92 895.289 L984.891 1005.71 L1001.86 1071.36 L1018.83 1055.94 L1035.8 971.541 L1052.78 1045.48 L1069.75 625.946 L1086.72 333.61 
  L1103.69 622.113 L1120.66 718.16 L1137.63 959.61 L1154.6 735.344 L1171.57 654.967 L1188.54 734.419 L1205.51 778.465 L1222.49 613.858 L1239.46 848.436 L1256.43 952.882 
  L1273.4 880.367 L1290.37 689.737 L1307.34 964.957 L1324.31 852.736 L1341.28 903.046 L1358.25 864.749 L1375.22 980.664 L1392.2 903.216 L1409.17 1006.44 L1426.14 900.155 
  L1443.11 929.86 L1460.08 1010.42 L1477.05 590.773 L1494.02 587.576 L1510.99 492.515 L1527.96 728.495 L1544.94 696.937 L1561.91 715.301 L1578.88 595.623 L1595.85 695.405 
  L1612.82 770.837 L1629.79 752.002 L1646.76 746.488 L1663.73 773.723 L1680.7 720.437 L1697.67 770.086 L1714.65 682.578 L1731.62 804.694 L1748.59 883.465 L1765.56 829.557 
  L1782.53 704.927 L1799.5 802.115 L1816.47 796.266 L1833.44 901.513 L1850.41 905.993 L1867.38 1006.15 L1884.36 522.901 L1901.33 399.23 L1918.3 578.428 L1935.27 676.58 
  L1952.24 445.236 L1969.21 441.273 L1986.18 563.602 L2003.15 696.998 L2020.12 639.626 L2037.09 488.318 L2054.07 845.978 L2071.04 679.14 L2088.01 946.907 L2104.98 752.944 
  L2121.95 765.335 L2138.92 771.868 L2155.89 1024.16 L2172.86 731.952 L2189.83 812.443 L2206.81 860.697 L2223.78 900.09 L2240.75 943.899 L2257.72 845.918 L2274.69 911.059 
  L2291.66 958.688 L2291.66 1088.72 L2274.69 1075.54 L2257.72 1069.6 L2240.75 1064.45 L2223.78 1051.5 L2206.81 1027.35 L2189.83 1028.99 L2172.86 1012.52 L2155.89 1018.03 
  L2138.92 997.726 L2121.95 987.083 L2104.98 973.761 L2088.01 947.346 L2071.04 940.849 L2054.07 915.287 L2037.09 920.903 L2020.12 912.314 L2003.15 880.86 L1986.18 860.75 
  L1969.21 849.427 L1952.24 833.087 L1935.27 804.803 L1918.3 764.899 L1901.33 762.176 L1884.36 717.43 L1867.38 1104.61 L1850.41 1076.67 L1833.44 1081.31 L1816.47 1074.38 
  L1799.5 1054.57 L1782.53 1037.29 L1765.56 1024.68 L1748.59 1030.7 L1731.62 1022.59 L1714.65 992.687 L1697.67 993.927 L1680.7 976.077 L1663.73 967.616 L1646.76 944.363 
  L1629.79 929.018 L1612.82 939.154 L1595.85 911.33 L1578.88 883.493 L1561.91 874.259 L1544.94 851.429 L1527.96 833.025 L1510.99 810.537 L1494.02 793.473 L1477.05 754.365 
  L1460.08 1117.1 L1443.11 1102.29 L1426.14 1102.6 L1409.17 1084.67 L1392.2 1080.91 L1375.22 1072.11 L1358.25 1064.23 L1341.28 1059.17 L1324.31 1034.41 L1307.34 1031.1 
  L1290.37 1031.24 L1273.4 1002.69 L1256.43 986.091 L1239.46 1004.91 L1222.49 978.756 L1205.51 970.337 L1188.54 953.648 L1171.57 939.287 L1154.6 911.478 L1137.63 896.606 
  L1120.66 889.984 L1103.69 840.312 L1086.72 819.463 L1069.75 804.05 L1052.78 1156.33 L1035.8 1148.73 L1018.83 1143.85 L1001.86 1130.07 L984.891 1135.39 L967.92 1113.71 
  L950.949 1119.82 L933.978 1107.74 L917.007 1096.3 L900.036 1083.91 L883.065 1083.03 L866.094 1068.12 L849.123 1063.1 L832.152 1035.87 L815.181 1033.46 L798.21 1037.67 
  L781.239 1011.42 L764.268 1005.22 L747.297 978.971 L730.326 976.545 L713.355 936.439 L696.384 917.953 L679.413 888.796 L662.442 865.923 L645.471 1239.29 L628.5 1234.11 
  L611.529 1232.21 L594.558 1222.89 L577.587 1222.92 L560.616 1224.12 L543.645 1216.2 L526.674 1210.65 L509.703 1195.01 L492.732 1197.38 L475.761 1191.55 L458.789 1180.04 
  L441.818 1169.62 L424.847 1161.46 L407.876 1156.59 L390.905 1135.72 L373.934 1129.24 L356.963 1112.3 L339.992 1104.09 L323.021 1081.62 L306.05 1067.3 L289.079 1050.62 
  L272.108 1026.28 L255.137 992.303  Z
  " fill="#0000ff" fill-rule="evenodd" fill-opacity="0.2"/>
<polyline clip-path="url(#clip5402)" style="stroke:#00a98d; stroke-width:0; stroke-opacity:1; fill:none" points="
  255.137,863.882 272.108,988.847 289.079,986.091 306.05,941.321 323.021,876.427 339.992,873.7 356.963,954.178 373.934,959.253 390.905,1100.2 407.876,993.049 
  424.847,1065.67 441.818,1036.55 458.789,1061.01 475.761,1015.5 492.732,1114.58 509.703,1076.09 526.674,1167.89 543.645,1076.62 560.616,1105.72 577.587,1144.99 
  594.558,1142.31 611.529,1117.75 628.5,1146.63 645.471,1132.19 662.442,634.036 679.413,773.033 696.384,567.428 713.355,869.504 730.326,693.12 747.297,634.273 
  764.268,819.252 781.239,857.044 798.21,825.001 815.181,806.844 832.152,736.845 849.123,807.464 866.094,793.124 883.065,1001.39 900.036,972.622 917.007,876.864 
  933.978,918.73 950.949,1021.28 967.92,895.289 984.891,1005.71 1001.86,1071.36 1018.83,1055.94 1035.8,971.541 1052.78,1045.48 1069.75,625.946 1086.72,333.61 
  1103.69,622.113 1120.66,718.16 1137.63,959.61 1154.6,735.344 1171.57,654.967 1188.54,734.419 1205.51,778.465 1222.49,613.858 1239.46,848.436 1256.43,952.882 
  1273.4,880.367 1290.37,689.737 1307.34,964.957 1324.31,852.736 1341.28,903.046 1358.25,864.749 1375.22,980.664 1392.2,903.216 1409.17,1006.44 1426.14,900.155 
  1443.11,929.86 1460.08,1010.42 1477.05,590.773 1494.02,587.576 1510.99,492.515 1527.96,728.495 1544.94,696.937 1561.91,715.301 1578.88,595.623 1595.85,695.405 
  1612.82,770.837 1629.79,752.002 1646.76,746.488 1663.73,773.723 1680.7,720.437 1697.67,770.086 1714.65,682.578 1731.62,804.694 1748.59,883.465 1765.56,829.557 
  1782.53,704.927 1799.5,802.115 1816.47,796.266 1833.44,901.513 1850.41,905.993 1867.38,1006.15 1884.36,522.901 1901.33,399.23 1918.3,578.428 1935.27,676.58 
  1952.24,445.236 1969.21,441.273 1986.18,563.602 2003.15,696.998 2020.12,639.626 2037.09,488.318 2054.07,845.978 2071.04,679.14 2088.01,946.907 2104.98,752.944 
  2121.95,765.335 2138.92,771.868 2155.89,1024.16 2172.86,731.952 2189.83,812.443 2206.81,860.697 2223.78,900.09 2240.75,943.899 2257.72,845.918 2274.69,911.059 
  2291.66,958.688 
  "/>
<path clip-path="url(#clip5400)" d="
M1238.17 507.595 L2280.76 507.595 L2280.76 205.195 L1238.17 205.195  Z
  " fill="#ffffff" fill-rule="evenodd" fill-opacity="1"/>
<polyline clip-path="url(#clip5400)" style="stroke:#000000; stroke-width:4; stroke-opacity:1; fill:none" points="
  1238.17,507.595 2280.76,507.595 2280.76,205.195 1238.17,205.195 1238.17,507.595 
  "/>
<polyline clip-path="url(#clip5400)" style="stroke:#ff0000; stroke-width:8; stroke-opacity:1; fill:none" stroke-dasharray="32, 16, 4, 16" points="
  1262.17,265.675 1406.17,265.675 
  "/>
<g clip-path="url(#clip5400)">
<text style="fill:#000000; fill-opacity:1; font-family:Arial,Helvetica Neue,Helvetica,sans-serif; font-size:48px; text-anchor:start;" transform="rotate(0, 1430.17, 283.175)" x="1430.17" y="283.175">Empirical 10.0% quantile</text>
</g>
<polyline clip-path="url(#clip5400)" style="stroke:#ff0000; stroke-width:8; stroke-opacity:1; fill:none" points="
  1262.17,326.155 1406.17,326.155 
  "/>
<g clip-path="url(#clip5400)">
<text style="fill:#000000; fill-opacity:1; font-family:Arial,Helvetica Neue,Helvetica,sans-serif; font-size:48px; text-anchor:start;" transform="rotate(0, 1430.17, 343.655)" x="1430.17" y="343.655">Empirical 50.0% quantile</text>
</g>
<polyline clip-path="url(#clip5400)" style="stroke:#ff0000; stroke-width:8; stroke-opacity:1; fill:none" stroke-dasharray="4, 8" points="
  1262.17,386.635 1406.17,386.635 
  "/>
<g clip-path="url(#clip5400)">
<text style="fill:#000000; fill-opacity:1; font-family:Arial,Helvetica Neue,Helvetica,sans-serif; font-size:48px; text-anchor:start;" transform="rotate(0, 1430.17, 404.135)" x="1430.17" y="404.135">Empirical 90.0% quantile</text>
</g>
<path clip-path="url(#clip5400)" d="
M1262.17 471.307 L1406.17 471.307 L1406.17 422.923 L1262.17 422.923 L1262.17 471.307  Z
  " fill="#0000ff" fill-rule="evenodd" fill-opacity="0.2"/>
<polyline clip-path="url(#clip5400)" style="stroke:#00a98d; stroke-width:0; stroke-opacity:1; fill:none" points="
  1262.17,422.923 1406.17,422.923 
  "/>
<g clip-path="url(#clip5400)">
<text style="fill:#000000; fill-opacity:1; font-family:Arial,Helvetica Neue,Helvetica,sans-serif; font-size:48px; text-anchor:start;" transform="rotate(0, 1430.17, 464.615)" x="1430.17" y="464.615">Simulated 95.0% confidence intervals</text>
</g>
</svg>
